<?xml version="1.0" encoding="utf-8" standalone="no"?>
<!DOCTYPE svg PUBLIC "-//W3C//DTD SVG 1.1//EN"
  "http://www.w3.org/Graphics/SVG/1.1/DTD/svg11.dtd">
<svg xmlns:xlink="http://www.w3.org/1999/xlink" width="709.557031pt" height="710.433437pt" viewBox="0 0 709.557031 710.433437" xmlns="http://www.w3.org/2000/svg" version="1.1">
 <metadata>
  <rdf:RDF xmlns:dc="http://purl.org/dc/elements/1.1/" xmlns:cc="http://creativecommons.org/ns#" xmlns:rdf="http://www.w3.org/1999/02/22-rdf-syntax-ns#">
   <cc:Work>
    <dc:type rdf:resource="http://purl.org/dc/dcmitype/StillImage"/>
    <dc:date>2026-02-26T17:38:53.942980</dc:date>
    <dc:format>image/svg+xml</dc:format>
    <dc:creator>
     <cc:Agent>
      <dc:title>Matplotlib v3.10.8, https://matplotlib.org/</dc:title>
     </cc:Agent>
    </dc:creator>
   </cc:Work>
  </rdf:RDF>
 </metadata>
 <defs>
  <style type="text/css">*{stroke-linejoin: round; stroke-linecap: butt}</style>
 </defs>
 <g id="figure_1">
  <g id="patch_1">
   <path d="M 0 710.433437 
L 709.557031 710.433437 
L 709.557031 0 
L 0 0 
z
" style="fill: #ffffff"/>
  </g>
  <g id="axes_1">
   <g id="patch_2">
    <path d="M 63.523594 218.524583 
L 661.743594 218.524583 
L 661.743594 27.24 
L 63.523594 27.24 
z
" style="fill: #ffffff"/>
   </g>
   <g id="matplotlib.axis_1">
    <g id="xtick_1">
     <g id="line2d_1">
      <path d="M 90.715412 218.524583 
L 90.715412 27.24 
" clip-path="url(#p67fe80eb38)" style="fill: none; stroke: #b0b0b0; stroke-opacity: 0.3; stroke-width: 0.8; stroke-linecap: square"/>
     </g>
     <g id="line2d_2">
      <defs>
       <path id="m175f3b5b7f" d="M 0 0 
L 0 3.5 
" style="stroke: #000000; stroke-width: 0.8"/>
      </defs>
      <g>
       <use xlink:href="#m175f3b5b7f" x="90.715412" y="218.524583" style="stroke: #000000; stroke-width: 0.8"/>
      </g>
     </g>
    </g>
    <g id="xtick_2">
     <g id="line2d_3">
      <path d="M 199.482685 218.524583 
L 199.482685 27.24 
" clip-path="url(#p67fe80eb38)" style="fill: none; stroke: #b0b0b0; stroke-opacity: 0.3; stroke-width: 0.8; stroke-linecap: square"/>
     </g>
     <g id="line2d_4">
      <g>
       <use xlink:href="#m175f3b5b7f" x="199.482685" y="218.524583" style="stroke: #000000; stroke-width: 0.8"/>
      </g>
     </g>
    </g>
    <g id="xtick_3">
     <g id="line2d_5">
      <path d="M 308.249957 218.524583 
L 308.249957 27.24 
" clip-path="url(#p67fe80eb38)" style="fill: none; stroke: #b0b0b0; stroke-opacity: 0.3; stroke-width: 0.8; stroke-linecap: square"/>
     </g>
     <g id="line2d_6">
      <g>
       <use xlink:href="#m175f3b5b7f" x="308.249957" y="218.524583" style="stroke: #000000; stroke-width: 0.8"/>
      </g>
     </g>
    </g>
    <g id="xtick_4">
     <g id="line2d_7">
      <path d="M 417.01723 218.524583 
L 417.01723 27.24 
" clip-path="url(#p67fe80eb38)" style="fill: none; stroke: #b0b0b0; stroke-opacity: 0.3; stroke-width: 0.8; stroke-linecap: square"/>
     </g>
     <g id="line2d_8">
      <g>
       <use xlink:href="#m175f3b5b7f" x="417.01723" y="218.524583" style="stroke: #000000; stroke-width: 0.8"/>
      </g>
     </g>
    </g>
    <g id="xtick_5">
     <g id="line2d_9">
      <path d="M 525.784503 218.524583 
L 525.784503 27.24 
" clip-path="url(#p67fe80eb38)" style="fill: none; stroke: #b0b0b0; stroke-opacity: 0.3; stroke-width: 0.8; stroke-linecap: square"/>
     </g>
     <g id="line2d_10">
      <g>
       <use xlink:href="#m175f3b5b7f" x="525.784503" y="218.524583" style="stroke: #000000; stroke-width: 0.8"/>
      </g>
     </g>
    </g>
    <g id="xtick_6">
     <g id="line2d_11">
      <path d="M 634.551776 218.524583 
L 634.551776 27.24 
" clip-path="url(#p67fe80eb38)" style="fill: none; stroke: #b0b0b0; stroke-opacity: 0.3; stroke-width: 0.8; stroke-linecap: square"/>
     </g>
     <g id="line2d_12">
      <g>
       <use xlink:href="#m175f3b5b7f" x="634.551776" y="218.524583" style="stroke: #000000; stroke-width: 0.8"/>
      </g>
     </g>
    </g>
   </g>
   <g id="matplotlib.axis_2">
    <g id="ytick_1">
     <g id="line2d_13">
      <path d="M 63.523594 198.496515 
L 661.743594 198.496515 
" clip-path="url(#p67fe80eb38)" style="fill: none; stroke: #b0b0b0; stroke-opacity: 0.3; stroke-width: 0.8; stroke-linecap: square"/>
     </g>
     <g id="line2d_14">
      <defs>
       <path id="md5b375389f" d="M 0 0 
L -3.5 0 
" style="stroke: #000000; stroke-width: 0.8"/>
      </defs>
      <g>
       <use xlink:href="#md5b375389f" x="63.523594" y="198.496515" style="stroke: #000000; stroke-width: 0.8"/>
      </g>
     </g>
     <g id="text_1">
      <!-- −0.04 -->
      <g transform="translate(22.81375 202.675655) scale(0.11 -0.11)">
       <defs>
        <path id="DejaVuSerif-2212" d="M 678 2259 
L 4684 2259 
L 4684 1753 
L 678 1753 
L 678 2259 
z
" transform="scale(0.015625)"/>
        <path id="DejaVuSerif-30" d="M 2034 219 
Q 2513 219 2750 744 
Q 2988 1269 2988 2328 
Q 2988 3391 2750 3916 
Q 2513 4441 2034 4441 
Q 1556 4441 1318 3916 
Q 1081 3391 1081 2328 
Q 1081 1269 1318 744 
Q 1556 219 2034 219 
z
M 2034 -91 
Q 1275 -91 848 546 
Q 422 1184 422 2328 
Q 422 3475 848 4112 
Q 1275 4750 2034 4750 
Q 2797 4750 3222 4112 
Q 3647 3475 3647 2328 
Q 3647 1184 3222 546 
Q 2797 -91 2034 -91 
z
" transform="scale(0.015625)"/>
        <path id="DejaVuSerif-2e" d="M 603 325 
Q 603 500 722 622 
Q 841 744 1019 744 
Q 1191 744 1312 622 
Q 1434 500 1434 325 
Q 1434 153 1312 31 
Q 1191 -91 1019 -91 
Q 841 -91 722 29 
Q 603 150 603 325 
z
" transform="scale(0.015625)"/>
        <path id="DejaVuSerif-34" d="M 2234 1581 
L 2234 4063 
L 641 1581 
L 2234 1581 
z
M 3609 0 
L 1484 0 
L 1484 331 
L 2234 331 
L 2234 1247 
L 197 1247 
L 197 1588 
L 2241 4750 
L 2859 4750 
L 2859 1581 
L 3750 1581 
L 3750 1247 
L 2859 1247 
L 2859 331 
L 3609 331 
L 3609 0 
z
" transform="scale(0.015625)"/>
       </defs>
       <use xlink:href="#DejaVuSerif-2212"/>
       <use xlink:href="#DejaVuSerif-30" transform="translate(83.789062 0)"/>
       <use xlink:href="#DejaVuSerif-2e" transform="translate(147.412109 0)"/>
       <use xlink:href="#DejaVuSerif-30" transform="translate(179.199219 0)"/>
       <use xlink:href="#DejaVuSerif-34" transform="translate(242.822266 0)"/>
      </g>
     </g>
    </g>
    <g id="ytick_2">
     <g id="line2d_15">
      <path d="M 63.523594 157.856075 
L 661.743594 157.856075 
" clip-path="url(#p67fe80eb38)" style="fill: none; stroke: #b0b0b0; stroke-opacity: 0.3; stroke-width: 0.8; stroke-linecap: square"/>
     </g>
     <g id="line2d_16">
      <g>
       <use xlink:href="#md5b375389f" x="63.523594" y="157.856075" style="stroke: #000000; stroke-width: 0.8"/>
      </g>
     </g>
     <g id="text_2">
      <!-- −0.03 -->
      <g transform="translate(22.81375 162.035215) scale(0.11 -0.11)">
       <defs>
        <path id="DejaVuSerif-33" d="M 622 4469 
Q 988 4606 1323 4678 
Q 1659 4750 1953 4750 
Q 2638 4750 3022 4454 
Q 3406 4159 3406 3634 
Q 3406 3213 3140 2930 
Q 2875 2647 2388 2547 
Q 2963 2466 3280 2130 
Q 3597 1794 3597 1259 
Q 3597 606 3158 257 
Q 2719 -91 1894 -91 
Q 1528 -91 1179 -12 
Q 831 66 488 225 
L 488 1131 
L 838 1131 
Q 869 681 1141 450 
Q 1413 219 1906 219 
Q 2384 219 2661 495 
Q 2938 772 2938 1253 
Q 2938 1803 2653 2086 
Q 2369 2369 1819 2369 
L 1522 2369 
L 1522 2688 
L 1678 2688 
Q 2225 2688 2498 2914 
Q 2772 3141 2772 3597 
Q 2772 4006 2547 4223 
Q 2322 4441 1900 4441 
Q 1478 4441 1245 4241 
Q 1013 4041 972 3647 
L 622 3647 
L 622 4469 
z
" transform="scale(0.015625)"/>
       </defs>
       <use xlink:href="#DejaVuSerif-2212"/>
       <use xlink:href="#DejaVuSerif-30" transform="translate(83.789062 0)"/>
       <use xlink:href="#DejaVuSerif-2e" transform="translate(147.412109 0)"/>
       <use xlink:href="#DejaVuSerif-30" transform="translate(179.199219 0)"/>
       <use xlink:href="#DejaVuSerif-33" transform="translate(242.822266 0)"/>
      </g>
     </g>
    </g>
    <g id="ytick_3">
     <g id="line2d_17">
      <path d="M 63.523594 117.215634 
L 661.743594 117.215634 
" clip-path="url(#p67fe80eb38)" style="fill: none; stroke: #b0b0b0; stroke-opacity: 0.3; stroke-width: 0.8; stroke-linecap: square"/>
     </g>
     <g id="line2d_18">
      <g>
       <use xlink:href="#md5b375389f" x="63.523594" y="117.215634" style="stroke: #000000; stroke-width: 0.8"/>
      </g>
     </g>
     <g id="text_3">
      <!-- −0.02 -->
      <g transform="translate(22.81375 121.394775) scale(0.11 -0.11)">
       <defs>
        <path id="DejaVuSerif-32" d="M 819 3553 
L 469 3553 
L 469 4384 
Q 803 4563 1142 4656 
Q 1481 4750 1806 4750 
Q 2534 4750 2956 4397 
Q 3378 4044 3378 3438 
Q 3378 2753 2422 1800 
Q 2347 1728 2309 1691 
L 1131 513 
L 3078 513 
L 3078 1088 
L 3444 1088 
L 3444 0 
L 434 0 
L 434 341 
L 1850 1753 
Q 2319 2222 2519 2614 
Q 2719 3006 2719 3438 
Q 2719 3909 2473 4175 
Q 2228 4441 1797 4441 
Q 1350 4441 1106 4219 
Q 863 3997 819 3553 
z
" transform="scale(0.015625)"/>
       </defs>
       <use xlink:href="#DejaVuSerif-2212"/>
       <use xlink:href="#DejaVuSerif-30" transform="translate(83.789062 0)"/>
       <use xlink:href="#DejaVuSerif-2e" transform="translate(147.412109 0)"/>
       <use xlink:href="#DejaVuSerif-30" transform="translate(179.199219 0)"/>
       <use xlink:href="#DejaVuSerif-32" transform="translate(242.822266 0)"/>
      </g>
     </g>
    </g>
    <g id="ytick_4">
     <g id="line2d_19">
      <path d="M 63.523594 76.575194 
L 661.743594 76.575194 
" clip-path="url(#p67fe80eb38)" style="fill: none; stroke: #b0b0b0; stroke-opacity: 0.3; stroke-width: 0.8; stroke-linecap: square"/>
     </g>
     <g id="line2d_20">
      <g>
       <use xlink:href="#md5b375389f" x="63.523594" y="76.575194" style="stroke: #000000; stroke-width: 0.8"/>
      </g>
     </g>
     <g id="text_4">
      <!-- −0.01 -->
      <g transform="translate(22.81375 80.754335) scale(0.11 -0.11)">
       <defs>
        <path id="DejaVuSerif-31" d="M 909 0 
L 909 331 
L 1722 331 
L 1722 4213 
L 781 3603 
L 781 4013 
L 1919 4750 
L 2350 4750 
L 2350 331 
L 3163 331 
L 3163 0 
L 909 0 
z
" transform="scale(0.015625)"/>
       </defs>
       <use xlink:href="#DejaVuSerif-2212"/>
       <use xlink:href="#DejaVuSerif-30" transform="translate(83.789062 0)"/>
       <use xlink:href="#DejaVuSerif-2e" transform="translate(147.412109 0)"/>
       <use xlink:href="#DejaVuSerif-30" transform="translate(179.199219 0)"/>
       <use xlink:href="#DejaVuSerif-31" transform="translate(242.822266 0)"/>
      </g>
     </g>
    </g>
    <g id="ytick_5">
     <g id="line2d_21">
      <path d="M 63.523594 35.934754 
L 661.743594 35.934754 
" clip-path="url(#p67fe80eb38)" style="fill: none; stroke: #b0b0b0; stroke-opacity: 0.3; stroke-width: 0.8; stroke-linecap: square"/>
     </g>
     <g id="line2d_22">
      <g>
       <use xlink:href="#md5b375389f" x="63.523594" y="35.934754" style="stroke: #000000; stroke-width: 0.8"/>
      </g>
     </g>
     <g id="text_5">
      <!-- 0.00 -->
      <g transform="translate(32.031406 40.113894) scale(0.11 -0.11)">
       <use xlink:href="#DejaVuSerif-30"/>
       <use xlink:href="#DejaVuSerif-2e" transform="translate(63.623047 0)"/>
       <use xlink:href="#DejaVuSerif-30" transform="translate(95.410156 0)"/>
       <use xlink:href="#DejaVuSerif-30" transform="translate(159.033203 0)"/>
      </g>
     </g>
    </g>
    <g id="text_6">
     <!-- $\chi_{\mathrm{DND}}$ -->
     <g transform="translate(16.29375 136.142292) rotate(-90) scale(0.12 -0.12)">
      <defs>
       <path id="DejaVuSans-Oblique-3c7" d="M 1922 -781 
L 1691 416 
L 394 -1334 
L -284 -1334 
L 1553 1141 
L 1269 2613 
Q 1194 3006 713 3006 
L 559 3006 
L 653 3500 
L 872 3494 
Q 1675 3472 1775 2950 
L 2006 1753 
L 3303 3503 
L 3981 3503 
L 2144 1028 
L 2428 -444 
Q 2503 -838 2984 -838 
L 3138 -838 
L 3044 -1331 
L 2825 -1325 
Q 2022 -1303 1922 -781 
z
" transform="scale(0.015625)"/>
       <path id="DejaVuSans-44" d="M 1259 4147 
L 1259 519 
L 2022 519 
Q 2988 519 3436 956 
Q 3884 1394 3884 2338 
Q 3884 3275 3436 3711 
Q 2988 4147 2022 4147 
L 1259 4147 
z
M 628 4666 
L 1925 4666 
Q 3281 4666 3915 4102 
Q 4550 3538 4550 2338 
Q 4550 1131 3912 565 
Q 3275 0 1925 0 
L 628 0 
L 628 4666 
z
" transform="scale(0.015625)"/>
       <path id="DejaVuSans-4e" d="M 628 4666 
L 1478 4666 
L 3547 763 
L 3547 4666 
L 4159 4666 
L 4159 0 
L 3309 0 
L 1241 3903 
L 1241 0 
L 628 0 
L 628 4666 
z
" transform="scale(0.015625)"/>
      </defs>
      <use xlink:href="#DejaVuSans-Oblique-3c7" transform="translate(0 0.265625)"/>
      <use xlink:href="#DejaVuSans-44" transform="translate(59.179688 -16.140625) scale(0.7)"/>
      <use xlink:href="#DejaVuSans-4e" transform="translate(113.081055 -16.140625) scale(0.7)"/>
      <use xlink:href="#DejaVuSans-44" transform="translate(164.219336 -16.140625) scale(0.7)"/>
     </g>
    </g>
   </g>
   <g id="line2d_23">
    <path d="M 90.715412 84.863368 
L 96.208709 85.55824 
L 101.702005 87.240119 
L 107.195302 89.893765 
L 112.688598 93.485539 
L 118.181895 97.964128 
L 123.675192 103.261645 
L 129.168488 109.295017 
L 134.661785 115.967613 
L 140.155081 123.171056 
L 145.648378 130.787189 
L 151.141675 138.690169 
L 156.634971 146.748647 
L 162.128268 154.827997 
L 167.621564 162.792574 
L 173.114861 170.507947 
L 178.608158 177.843094 
L 184.101454 184.672515 
L 189.594751 190.878261 
L 195.088047 196.35186 
L 200.581344 200.996153 
L 206.074641 204.727044 
L 211.567937 207.475207 
L 217.061234 209.187742 
L 222.55453 209.82983 
L 228.047827 209.386337 
L 233.541124 207.863321 
L 239.03442 205.289265 
L 244.527717 201.715816 
L 250.021013 197.217667 
L 255.51431 191.891201 
L 261.007607 185.851578 
L 266.500903 179.228111 
L 271.9942 172.158155 
L 277.487496 164.780166 
L 282.980793 157.226938 
L 288.47409 149.620229 
L 293.967386 142.06779 
L 299.460683 134.663273 
L 304.953979 127.488787 
L 310.447276 120.619199 
L 315.940573 114.126827 
L 321.433869 108.085242 
L 326.927166 102.57123 
L 332.420462 97.664563 
L 337.913759 93.445838 
L 343.407056 89.992983 
L 348.900352 87.377229 
L 354.393649 85.659218 
L 359.886945 84.885718 
L 365.380242 85.087205 
L 370.873539 86.276319 
L 376.366835 88.447149 
L 381.860132 91.57519 
L 387.353428 95.617852 
L 392.846725 100.515375 
L 398.340022 106.192091 
L 403.833318 112.557933 
L 409.326615 119.510158 
L 414.819911 126.935246 
L 420.313208 134.710929 
L 425.806505 142.708335 
L 431.299801 150.794193 
L 436.793098 158.833089 
L 442.286394 166.689705 
L 447.779691 174.231046 
L 453.272988 181.328592 
L 458.766284 187.860371 
L 464.259581 193.712938 
L 469.752877 198.783252 
L 475.246174 202.980472 
L 480.739471 206.227677 
L 486.232767 208.463547 
L 491.726064 209.644017 
L 497.219361 209.743915 
L 502.712657 208.758527 
L 508.205954 206.704991 
L 513.69925 203.623328 
L 519.192547 199.576788 
L 524.685844 194.65117 
L 530.17914 188.952719 
L 535.672437 182.604349 
L 541.165733 175.740233 
L 546.65903 168.49916 
L 552.152327 161.01754 
L 557.645623 153.42319 
L 563.13892 145.831061 
L 568.632216 138.341684 
L 574.125513 131.042484 
L 579.61881 124.011353 
L 585.112106 117.321326 
L 590.605403 111.044971 
L 596.098699 105.257357 
L 601.591996 100.036924 
L 607.085293 95.464228 
L 612.578589 91.61902 
L 618.071886 88.576388 
L 623.565182 86.402725 
L 629.058479 85.152095 
L 634.551776 84.863368 
" clip-path="url(#p67fe80eb38)" style="fill: none; stroke: #0000ff; stroke-width: 2; stroke-linecap: square"/>
   </g>
   <g id="line2d_24">
    <path d="M 63.523594 35.934754 
L 661.743594 35.934754 
" clip-path="url(#p67fe80eb38)" style="fill: none; stroke-dasharray: 1.5,2.475; stroke-dashoffset: 0; stroke: #ff0000; stroke-opacity: 0.3; stroke-width: 1.5"/>
   </g>
   <g id="patch_3">
    <path d="M 63.523594 218.524583 
L 63.523594 27.24 
" style="fill: none; stroke: #000000; stroke-width: 0.8; stroke-linejoin: miter; stroke-linecap: square"/>
   </g>
   <g id="patch_4">
    <path d="M 661.743594 218.524583 
L 661.743594 27.24 
" style="fill: none; stroke: #000000; stroke-width: 0.8; stroke-linejoin: miter; stroke-linecap: square"/>
   </g>
   <g id="patch_5">
    <path d="M 63.523594 218.524583 
L 661.743594 218.524583 
" style="fill: none; stroke: #000000; stroke-width: 0.8; stroke-linejoin: miter; stroke-linecap: square"/>
   </g>
   <g id="patch_6">
    <path d="M 63.523594 27.24 
L 661.743594 27.24 
" style="fill: none; stroke: #000000; stroke-width: 0.8; stroke-linejoin: miter; stroke-linecap: square"/>
   </g>
   <g id="text_7">
    <!-- Topological Charge Evolution: $\chi_{\mathrm{DND}} = \frac{1}{2\pi}\oint K_{\mathrm{gen}}\,dA$ -->
    <g transform="translate(204.293594 21.24) scale(0.13 -0.13)">
     <defs>
      <path id="DejaVuSerif-54" d="M 1222 0 
L 1222 331 
L 1819 331 
L 1819 4294 
L 447 4294 
L 447 3566 
L 63 3566 
L 63 4666 
L 4206 4666 
L 4206 3566 
L 3822 3566 
L 3822 4294 
L 2450 4294 
L 2450 331 
L 3047 331 
L 3047 0 
L 1222 0 
z
" transform="scale(0.015625)"/>
      <path id="DejaVuSerif-6f" d="M 1925 219 
Q 2388 219 2623 584 
Q 2859 950 2859 1663 
Q 2859 2375 2623 2739 
Q 2388 3103 1925 3103 
Q 1463 3103 1227 2739 
Q 991 2375 991 1663 
Q 991 950 1228 584 
Q 1466 219 1925 219 
z
M 1925 -91 
Q 1200 -91 759 389 
Q 319 869 319 1663 
Q 319 2456 758 2934 
Q 1197 3413 1925 3413 
Q 2653 3413 3092 2934 
Q 3531 2456 3531 1663 
Q 3531 869 3092 389 
Q 2653 -91 1925 -91 
z
" transform="scale(0.015625)"/>
      <path id="DejaVuSerif-70" d="M 1313 1825 
L 1313 1497 
Q 1313 897 1542 583 
Q 1772 269 2209 269 
Q 2650 269 2876 622 
Q 3103 975 3103 1663 
Q 3103 2353 2876 2703 
Q 2650 3053 2209 3053 
Q 1772 3053 1542 2737 
Q 1313 2422 1313 1825 
z
M 738 2988 
L 184 2988 
L 184 3322 
L 1313 3322 
L 1313 2803 
Q 1481 3116 1742 3264 
Q 2003 3413 2388 3413 
Q 3000 3413 3387 2928 
Q 3775 2444 3775 1663 
Q 3775 881 3387 395 
Q 3000 -91 2388 -91 
Q 2003 -91 1742 57 
Q 1481 206 1313 519 
L 1313 -997 
L 1856 -997 
L 1856 -1331 
L 184 -1331 
L 184 -997 
L 738 -997 
L 738 2988 
z
" transform="scale(0.015625)"/>
      <path id="DejaVuSerif-6c" d="M 1313 331 
L 1856 331 
L 1856 0 
L 184 0 
L 184 331 
L 738 331 
L 738 4531 
L 184 4531 
L 184 4863 
L 1313 4863 
L 1313 331 
z
" transform="scale(0.015625)"/>
      <path id="DejaVuSerif-67" d="M 3359 2988 
L 3359 72 
Q 3359 -644 2965 -1033 
Q 2572 -1422 1844 -1422 
Q 1516 -1422 1216 -1362 
Q 916 -1303 641 -1184 
L 641 -488 
L 941 -488 
Q 997 -813 1206 -963 
Q 1416 -1113 1806 -1113 
Q 2313 -1113 2548 -827 
Q 2784 -541 2784 72 
L 2784 519 
Q 2616 206 2355 57 
Q 2094 -91 1709 -91 
Q 1097 -91 708 395 
Q 319 881 319 1663 
Q 319 2444 706 2928 
Q 1094 3413 1709 3413 
Q 2094 3413 2355 3264 
Q 2616 3116 2784 2803 
L 2784 3322 
L 3909 3322 
L 3909 2988 
L 3359 2988 
z
M 2784 1825 
Q 2784 2422 2554 2737 
Q 2325 3053 1888 3053 
Q 1444 3053 1217 2703 
Q 991 2353 991 1663 
Q 991 975 1217 622 
Q 1444 269 1888 269 
Q 2325 269 2554 583 
Q 2784 897 2784 1497 
L 2784 1825 
z
" transform="scale(0.015625)"/>
      <path id="DejaVuSerif-69" d="M 622 4353 
Q 622 4497 726 4603 
Q 831 4709 978 4709 
Q 1122 4709 1226 4603 
Q 1331 4497 1331 4353 
Q 1331 4206 1228 4103 
Q 1125 4000 978 4000 
Q 831 4000 726 4103 
Q 622 4206 622 4353 
z
M 1356 331 
L 1900 331 
L 1900 0 
L 231 0 
L 231 331 
L 781 331 
L 781 2988 
L 231 2988 
L 231 3322 
L 1356 3322 
L 1356 331 
z
" transform="scale(0.015625)"/>
      <path id="DejaVuSerif-63" d="M 3291 997 
Q 3169 466 2822 187 
Q 2475 -91 1925 -91 
Q 1200 -91 759 389 
Q 319 869 319 1663 
Q 319 2459 759 2936 
Q 1200 3413 1925 3413 
Q 2241 3413 2553 3339 
Q 2866 3266 3181 3116 
L 3181 2266 
L 2847 2266 
Q 2781 2703 2561 2903 
Q 2341 3103 1931 3103 
Q 1466 3103 1228 2742 
Q 991 2381 991 1663 
Q 991 944 1227 581 
Q 1463 219 1931 219 
Q 2303 219 2525 412 
Q 2747 606 2828 997 
L 3291 997 
z
" transform="scale(0.015625)"/>
      <path id="DejaVuSerif-61" d="M 2547 1044 
L 2547 1747 
L 1806 1747 
Q 1378 1747 1168 1562 
Q 959 1378 959 997 
Q 959 650 1171 447 
Q 1384 244 1747 244 
Q 2106 244 2326 466 
Q 2547 688 2547 1044 
z
M 3122 2075 
L 3122 331 
L 3634 331 
L 3634 0 
L 2547 0 
L 2547 359 
Q 2356 128 2106 18 
Q 1856 -91 1522 -91 
Q 969 -91 644 203 
Q 319 497 319 997 
Q 319 1513 691 1797 
Q 1063 2081 1741 2081 
L 2547 2081 
L 2547 2309 
Q 2547 2688 2317 2895 
Q 2088 3103 1672 3103 
Q 1328 3103 1125 2947 
Q 922 2791 872 2484 
L 575 2484 
L 575 3156 
Q 875 3284 1158 3348 
Q 1441 3413 1709 3413 
Q 2400 3413 2761 3070 
Q 3122 2728 3122 2075 
z
" transform="scale(0.015625)"/>
      <path id="DejaVuSerif-20" transform="scale(0.015625)"/>
      <path id="DejaVuSerif-43" d="M 4513 1234 
Q 4306 581 3820 245 
Q 3334 -91 2591 -91 
Q 2134 -91 1743 65 
Q 1353 222 1050 525 
Q 700 875 529 1320 
Q 359 1766 359 2328 
Q 359 3416 987 4083 
Q 1616 4750 2644 4750 
Q 3025 4750 3456 4650 
Q 3888 4550 4384 4347 
L 4384 3272 
L 4031 3272 
Q 3916 3859 3567 4137 
Q 3219 4416 2591 4416 
Q 1844 4416 1459 3886 
Q 1075 3356 1075 2328 
Q 1075 1303 1459 773 
Q 1844 244 2591 244 
Q 3113 244 3450 492 
Q 3788 741 3938 1234 
L 4513 1234 
z
" transform="scale(0.015625)"/>
      <path id="DejaVuSerif-68" d="M 263 0 
L 263 331 
L 781 331 
L 781 4531 
L 231 4531 
L 231 4863 
L 1356 4863 
L 1356 2731 
Q 1516 3069 1770 3241 
Q 2025 3413 2363 3413 
Q 2913 3413 3172 3097 
Q 3431 2781 3431 2113 
L 3431 331 
L 3944 331 
L 3944 0 
L 2356 0 
L 2356 331 
L 2853 331 
L 2853 1931 
Q 2853 2541 2704 2764 
Q 2556 2988 2175 2988 
Q 1775 2988 1565 2697 
Q 1356 2406 1356 1850 
L 1356 331 
L 1856 331 
L 1856 0 
L 263 0 
z
" transform="scale(0.015625)"/>
      <path id="DejaVuSerif-72" d="M 3059 3328 
L 3059 2497 
L 2728 2497 
Q 2713 2744 2591 2866 
Q 2469 2988 2234 2988 
Q 1809 2988 1582 2694 
Q 1356 2400 1356 1850 
L 1356 331 
L 2022 331 
L 2022 0 
L 263 0 
L 263 331 
L 781 331 
L 781 2994 
L 231 2994 
L 231 3322 
L 1356 3322 
L 1356 2731 
Q 1525 3078 1790 3245 
Q 2056 3413 2438 3413 
Q 2578 3413 2733 3391 
Q 2888 3369 3059 3328 
z
" transform="scale(0.015625)"/>
      <path id="DejaVuSerif-65" d="M 3469 1600 
L 991 1600 
L 991 1575 
Q 991 903 1244 561 
Q 1497 219 1991 219 
Q 2369 219 2611 417 
Q 2853 616 2950 1006 
L 3413 1006 
Q 3275 459 2904 184 
Q 2534 -91 1931 -91 
Q 1203 -91 761 389 
Q 319 869 319 1663 
Q 319 2450 753 2931 
Q 1188 3413 1894 3413 
Q 2647 3413 3050 2948 
Q 3453 2484 3469 1600 
z
M 2791 1931 
Q 2772 2513 2545 2808 
Q 2319 3103 1894 3103 
Q 1497 3103 1269 2806 
Q 1041 2509 991 1931 
L 2791 1931 
z
" transform="scale(0.015625)"/>
      <path id="DejaVuSerif-45" d="M 353 0 
L 353 331 
L 947 331 
L 947 4331 
L 353 4331 
L 353 4666 
L 4109 4666 
L 4109 3628 
L 3725 3628 
L 3725 4281 
L 1581 4281 
L 1581 2719 
L 3109 2719 
L 3109 3303 
L 3494 3303 
L 3494 1753 
L 3109 1753 
L 3109 2338 
L 1581 2338 
L 1581 384 
L 3775 384 
L 3775 1038 
L 4159 1038 
L 4159 0 
L 353 0 
z
" transform="scale(0.015625)"/>
      <path id="DejaVuSerif-76" d="M 1581 0 
L 359 2988 
L -19 2988 
L -19 3322 
L 1509 3322 
L 1509 2988 
L 978 2988 
L 1913 703 
L 2847 2988 
L 2350 2988 
L 2350 3322 
L 3597 3322 
L 3597 2988 
L 3225 2988 
L 2003 0 
L 1581 0 
z
" transform="scale(0.015625)"/>
      <path id="DejaVuSerif-75" d="M 2266 3322 
L 3341 3322 
L 3341 331 
L 3884 331 
L 3884 0 
L 2766 0 
L 2766 588 
Q 2606 256 2353 82 
Q 2100 -91 1766 -91 
Q 1213 -91 952 223 
Q 691 538 691 1209 
L 691 2988 
L 172 2988 
L 172 3322 
L 1269 3322 
L 1269 1388 
Q 1269 781 1417 556 
Q 1566 331 1947 331 
Q 2347 331 2556 625 
Q 2766 919 2766 1478 
L 2766 2988 
L 2266 2988 
L 2266 3322 
z
" transform="scale(0.015625)"/>
      <path id="DejaVuSerif-74" d="M 691 2988 
L 184 2988 
L 184 3322 
L 691 3322 
L 691 4353 
L 1269 4353 
L 1269 3322 
L 2350 3322 
L 2350 2988 
L 1269 2988 
L 1269 878 
Q 1269 456 1350 337 
Q 1431 219 1650 219 
Q 1875 219 1978 351 
Q 2081 484 2088 781 
L 2522 781 
Q 2497 328 2275 118 
Q 2053 -91 1600 -91 
Q 1103 -91 897 129 
Q 691 350 691 878 
L 691 2988 
z
" transform="scale(0.015625)"/>
      <path id="DejaVuSerif-6e" d="M 263 0 
L 263 331 
L 781 331 
L 781 2988 
L 231 2988 
L 231 3322 
L 1356 3322 
L 1356 2731 
Q 1516 3069 1770 3241 
Q 2025 3413 2363 3413 
Q 2913 3413 3172 3097 
Q 3431 2781 3431 2113 
L 3431 331 
L 3944 331 
L 3944 0 
L 2356 0 
L 2356 331 
L 2853 331 
L 2853 1931 
Q 2853 2541 2703 2767 
Q 2553 2994 2175 2994 
Q 1775 2994 1565 2701 
Q 1356 2409 1356 1850 
L 1356 331 
L 1856 331 
L 1856 0 
L 263 0 
z
" transform="scale(0.015625)"/>
      <path id="DejaVuSerif-3a" d="M 666 325 
Q 666 500 786 622 
Q 906 744 1081 744 
Q 1256 744 1376 622 
Q 1497 500 1497 325 
Q 1497 150 1378 29 
Q 1259 -91 1081 -91 
Q 903 -91 784 29 
Q 666 150 666 325 
z
M 666 2363 
Q 666 2538 786 2658 
Q 906 2778 1081 2778 
Q 1259 2778 1378 2659 
Q 1497 2541 1497 2363 
Q 1497 2184 1378 2065 
Q 1259 1947 1081 1947 
Q 906 1947 786 2067 
Q 666 2188 666 2363 
z
" transform="scale(0.015625)"/>
      <path id="DejaVuSans-3d" d="M 678 2906 
L 4684 2906 
L 4684 2381 
L 678 2381 
L 678 2906 
z
M 678 1631 
L 4684 1631 
L 4684 1100 
L 678 1100 
L 678 1631 
z
" transform="scale(0.015625)"/>
      <path id="DejaVuSans-31" d="M 794 531 
L 1825 531 
L 1825 4091 
L 703 3866 
L 703 4441 
L 1819 4666 
L 2450 4666 
L 2450 531 
L 3481 531 
L 3481 0 
L 794 0 
L 794 531 
z
" transform="scale(0.015625)"/>
      <path id="DejaVuSans-32" d="M 1228 531 
L 3431 531 
L 3431 0 
L 469 0 
L 469 531 
Q 828 903 1448 1529 
Q 2069 2156 2228 2338 
Q 2531 2678 2651 2914 
Q 2772 3150 2772 3378 
Q 2772 3750 2511 3984 
Q 2250 4219 1831 4219 
Q 1534 4219 1204 4116 
Q 875 4013 500 3803 
L 500 4441 
Q 881 4594 1212 4672 
Q 1544 4750 1819 4750 
Q 2544 4750 2975 4387 
Q 3406 4025 3406 3419 
Q 3406 3131 3298 2873 
Q 3191 2616 2906 2266 
Q 2828 2175 2409 1742 
Q 1991 1309 1228 531 
z
" transform="scale(0.015625)"/>
      <path id="DejaVuSans-Oblique-3c0" d="M 584 3500 
L 3938 3500 
L 3825 2925 
L 3384 2925 
L 2966 775 
Q 2922 550 2981 450 
Q 3038 353 3209 353 
Q 3256 353 3325 363 
Q 3397 369 3419 372 
L 3338 -44 
Q 3222 -84 3103 -103 
Q 2981 -122 2866 -122 
Q 2491 -122 2388 81 
Q 2284 288 2391 838 
L 2797 2925 
L 1506 2925 
L 938 0 
L 350 0 
L 919 2925 
L 472 2925 
L 584 3500 
z
" transform="scale(0.015625)"/>
      <path id="DejaVuSansDisplay-222e" d="M 2134 5525 
Q 2172 6263 2538 6563 
Q 2888 6850 3213 6850 
Q 3553 6850 3866 6541 
Q 4109 6300 4200 5678 
L 3544 5613 
Q 3469 6188 3219 6188 
Q 2906 6188 2869 5413 
L 2806 4097 
Q 3244 3991 3534 3659 
Q 4022 3113 4022 2466 
Q 4022 1775 3534 1288 
Q 3153 913 2647 825 
L 2581 -597 
Q 2547 -1334 2178 -1634 
Q 1828 -1922 1503 -1922 
Q 1163 -1922 850 -1613 
Q 606 -1372 516 -750 
L 1172 -684 
Q 1247 -1259 1497 -1259 
Q 1809 -1259 1847 -488 
L 1913 863 
Q 1500 969 1181 1291 
Q 694 1781 694 2466 
Q 694 3156 1184 3663 
Q 1550 4044 2069 4128 
L 2134 5525 
z
M 2678 1419 
Q 2947 1491 3144 1697 
Q 3450 2016 3447 2472 
Q 3447 2941 3134 3253 
Q 2972 3413 2775 3491 
L 2678 1419 
z
M 1941 1459 
L 2038 3534 
Q 1769 3459 1572 3256 
Q 1253 2928 1256 2472 
Q 1256 2016 1588 1697 
Q 1750 1538 1941 1459 
z
" transform="scale(0.015625)"/>
      <path id="DejaVuSans-Oblique-4b" d="M 1081 4666 
L 1716 4666 
L 1331 2700 
L 3781 4666 
L 4622 4666 
L 1850 2438 
L 3878 0 
L 3109 0 
L 1247 2272 
L 806 0 
L 172 0 
L 1081 4666 
z
" transform="scale(0.015625)"/>
      <path id="DejaVuSans-67" d="M 2906 1791 
Q 2906 2416 2648 2759 
Q 2391 3103 1925 3103 
Q 1463 3103 1205 2759 
Q 947 2416 947 1791 
Q 947 1169 1205 825 
Q 1463 481 1925 481 
Q 2391 481 2648 825 
Q 2906 1169 2906 1791 
z
M 3481 434 
Q 3481 -459 3084 -895 
Q 2688 -1331 1869 -1331 
Q 1566 -1331 1297 -1286 
Q 1028 -1241 775 -1147 
L 775 -588 
Q 1028 -725 1275 -790 
Q 1522 -856 1778 -856 
Q 2344 -856 2625 -561 
Q 2906 -266 2906 331 
L 2906 616 
Q 2728 306 2450 153 
Q 2172 0 1784 0 
Q 1141 0 747 490 
Q 353 981 353 1791 
Q 353 2603 747 3093 
Q 1141 3584 1784 3584 
Q 2172 3584 2450 3431 
Q 2728 3278 2906 2969 
L 2906 3500 
L 3481 3500 
L 3481 434 
z
" transform="scale(0.015625)"/>
      <path id="DejaVuSans-65" d="M 3597 1894 
L 3597 1613 
L 953 1613 
Q 991 1019 1311 708 
Q 1631 397 2203 397 
Q 2534 397 2845 478 
Q 3156 559 3463 722 
L 3463 178 
Q 3153 47 2828 -22 
Q 2503 -91 2169 -91 
Q 1331 -91 842 396 
Q 353 884 353 1716 
Q 353 2575 817 3079 
Q 1281 3584 2069 3584 
Q 2775 3584 3186 3129 
Q 3597 2675 3597 1894 
z
M 3022 2063 
Q 3016 2534 2758 2815 
Q 2500 3097 2075 3097 
Q 1594 3097 1305 2825 
Q 1016 2553 972 2059 
L 3022 2063 
z
" transform="scale(0.015625)"/>
      <path id="DejaVuSans-6e" d="M 3513 2113 
L 3513 0 
L 2938 0 
L 2938 2094 
Q 2938 2591 2744 2837 
Q 2550 3084 2163 3084 
Q 1697 3084 1428 2787 
Q 1159 2491 1159 1978 
L 1159 0 
L 581 0 
L 581 3500 
L 1159 3500 
L 1159 2956 
Q 1366 3272 1645 3428 
Q 1925 3584 2291 3584 
Q 2894 3584 3203 3211 
Q 3513 2838 3513 2113 
z
" transform="scale(0.015625)"/>
      <path id="DejaVuSans-Oblique-64" d="M 2675 525 
Q 2444 222 2128 65 
Q 1813 -91 1428 -91 
Q 903 -91 598 267 
Q 294 625 294 1247 
Q 294 1766 478 2236 
Q 663 2706 1013 3078 
Q 1244 3325 1534 3454 
Q 1825 3584 2144 3584 
Q 2481 3584 2739 3421 
Q 2997 3259 3138 2956 
L 3513 4863 
L 4091 4863 
L 3144 0 
L 2566 0 
L 2675 525 
z
M 891 1350 
Q 891 897 1095 644 
Q 1300 391 1663 391 
Q 1931 391 2161 520 
Q 2391 650 2566 903 
Q 2750 1166 2856 1509 
Q 2963 1853 2963 2188 
Q 2963 2622 2758 2865 
Q 2553 3109 2194 3109 
Q 1922 3109 1687 2981 
Q 1453 2853 1288 2613 
Q 1106 2353 998 2009 
Q 891 1666 891 1350 
z
" transform="scale(0.015625)"/>
      <path id="DejaVuSans-Oblique-41" d="M 2356 4666 
L 3072 4666 
L 3938 0 
L 3278 0 
L 3084 1197 
L 984 1197 
L 325 0 
L -341 0 
L 2356 4666 
z
M 2584 4044 
L 1275 1722 
L 2988 1722 
L 2584 4044 
z
" transform="scale(0.015625)"/>
     </defs>
     <use xlink:href="#DejaVuSerif-54" transform="translate(0 0.96875)"/>
     <use xlink:href="#DejaVuSerif-6f" transform="translate(66.699219 0.96875)"/>
     <use xlink:href="#DejaVuSerif-70" transform="translate(126.904297 0.96875)"/>
     <use xlink:href="#DejaVuSerif-6f" transform="translate(190.917969 0.96875)"/>
     <use xlink:href="#DejaVuSerif-6c" transform="translate(251.123047 0.96875)"/>
     <use xlink:href="#DejaVuSerif-6f" transform="translate(283.105469 0.96875)"/>
     <use xlink:href="#DejaVuSerif-67" transform="translate(343.310547 0.96875)"/>
     <use xlink:href="#DejaVuSerif-69" transform="translate(407.324219 0.96875)"/>
     <use xlink:href="#DejaVuSerif-63" transform="translate(439.306641 0.96875)"/>
     <use xlink:href="#DejaVuSerif-61" transform="translate(495.3125 0.96875)"/>
     <use xlink:href="#DejaVuSerif-6c" transform="translate(554.931641 0.96875)"/>
     <use xlink:href="#DejaVuSerif-20" transform="translate(586.914062 0.96875)"/>
     <use xlink:href="#DejaVuSerif-43" transform="translate(618.701172 0.96875)"/>
     <use xlink:href="#DejaVuSerif-68" transform="translate(695.214844 0.96875)"/>
     <use xlink:href="#DejaVuSerif-61" transform="translate(759.619141 0.96875)"/>
     <use xlink:href="#DejaVuSerif-72" transform="translate(819.238281 0.96875)"/>
     <use xlink:href="#DejaVuSerif-67" transform="translate(867.041016 0.96875)"/>
     <use xlink:href="#DejaVuSerif-65" transform="translate(931.054688 0.96875)"/>
     <use xlink:href="#DejaVuSerif-20" transform="translate(990.234375 0.96875)"/>
     <use xlink:href="#DejaVuSerif-45" transform="translate(1022.021484 0.96875)"/>
     <use xlink:href="#DejaVuSerif-76" transform="translate(1095.019531 0.96875)"/>
     <use xlink:href="#DejaVuSerif-6f" transform="translate(1151.513672 0.96875)"/>
     <use xlink:href="#DejaVuSerif-6c" transform="translate(1211.71875 0.96875)"/>
     <use xlink:href="#DejaVuSerif-75" transform="translate(1243.701172 0.96875)"/>
     <use xlink:href="#DejaVuSerif-74" transform="translate(1308.105469 0.96875)"/>
     <use xlink:href="#DejaVuSerif-69" transform="translate(1348.291016 0.96875)"/>
     <use xlink:href="#DejaVuSerif-6f" transform="translate(1380.273438 0.96875)"/>
     <use xlink:href="#DejaVuSerif-6e" transform="translate(1440.478516 0.96875)"/>
     <use xlink:href="#DejaVuSerif-3a" transform="translate(1504.882812 0.96875)"/>
     <use xlink:href="#DejaVuSerif-20" transform="translate(1538.574219 0.96875)"/>
     <use xlink:href="#DejaVuSans-Oblique-3c7" transform="translate(1570.361328 0.96875)"/>
     <use xlink:href="#DejaVuSans-44" transform="translate(1629.541016 -15.4375) scale(0.7)"/>
     <use xlink:href="#DejaVuSans-4e" transform="translate(1683.442383 -15.4375) scale(0.7)"/>
     <use xlink:href="#DejaVuSans-44" transform="translate(1734.580664 -15.4375) scale(0.7)"/>
     <use xlink:href="#DejaVuSans-3d" transform="translate(1810.698828 0.96875)"/>
     <use xlink:href="#DejaVuSans-31" transform="translate(1934.970313 44.765625) scale(0.7)"/>
     <use xlink:href="#DejaVuSans-32" transform="translate(1913.970313 -38.4375) scale(0.7)"/>
     <use xlink:href="#DejaVuSans-Oblique-3c0" transform="translate(1958.506445 -38.4375) scale(0.7)"/>
     <use xlink:href="#DejaVuSansDisplay-222e" transform="translate(2013.15 0.96875)"/>
     <use xlink:href="#DejaVuSans-Oblique-4b" transform="translate(2086.782813 0.96875)"/>
     <use xlink:href="#DejaVuSans-67" transform="translate(2152.358984 -15.4375) scale(0.7)"/>
     <use xlink:href="#DejaVuSans-65" transform="translate(2196.792578 -15.4375) scale(0.7)"/>
     <use xlink:href="#DejaVuSans-6e" transform="translate(2239.858984 -15.4375) scale(0.7)"/>
     <use xlink:href="#DejaVuSans-Oblique-64" transform="translate(2303.19427 0.96875)"/>
     <use xlink:href="#DejaVuSans-Oblique-41" transform="translate(2366.670833 0.96875)"/>
     <path d="M 1913.970313 19.765625 
L 1913.970313 26.015625 
L 2000.65 26.015625 
L 2000.65 19.765625 
L 1913.970313 19.765625 
z
"/>
    </g>
   </g>
  </g>
  <g id="axes_2">
   <g id="patch_7">
    <path d="M 63.523594 444.249167 
L 661.743594 444.249167 
L 661.743594 252.964583 
L 63.523594 252.964583 
z
" style="fill: #ffffff"/>
   </g>
   <g id="matplotlib.axis_3">
    <g id="xtick_7">
     <g id="line2d_25">
      <path d="M 90.715412 444.249167 
L 90.715412 252.964583 
" clip-path="url(#pcd6a0bd5e7)" style="fill: none; stroke: #b0b0b0; stroke-opacity: 0.3; stroke-width: 0.8; stroke-linecap: square"/>
     </g>
     <g id="line2d_26">
      <g>
       <use xlink:href="#m175f3b5b7f" x="90.715412" y="444.249167" style="stroke: #000000; stroke-width: 0.8"/>
      </g>
     </g>
    </g>
    <g id="xtick_8">
     <g id="line2d_27">
      <path d="M 199.482685 444.249167 
L 199.482685 252.964583 
" clip-path="url(#pcd6a0bd5e7)" style="fill: none; stroke: #b0b0b0; stroke-opacity: 0.3; stroke-width: 0.8; stroke-linecap: square"/>
     </g>
     <g id="line2d_28">
      <g>
       <use xlink:href="#m175f3b5b7f" x="199.482685" y="444.249167" style="stroke: #000000; stroke-width: 0.8"/>
      </g>
     </g>
    </g>
    <g id="xtick_9">
     <g id="line2d_29">
      <path d="M 308.249957 444.249167 
L 308.249957 252.964583 
" clip-path="url(#pcd6a0bd5e7)" style="fill: none; stroke: #b0b0b0; stroke-opacity: 0.3; stroke-width: 0.8; stroke-linecap: square"/>
     </g>
     <g id="line2d_30">
      <g>
       <use xlink:href="#m175f3b5b7f" x="308.249957" y="444.249167" style="stroke: #000000; stroke-width: 0.8"/>
      </g>
     </g>
    </g>
    <g id="xtick_10">
     <g id="line2d_31">
      <path d="M 417.01723 444.249167 
L 417.01723 252.964583 
" clip-path="url(#pcd6a0bd5e7)" style="fill: none; stroke: #b0b0b0; stroke-opacity: 0.3; stroke-width: 0.8; stroke-linecap: square"/>
     </g>
     <g id="line2d_32">
      <g>
       <use xlink:href="#m175f3b5b7f" x="417.01723" y="444.249167" style="stroke: #000000; stroke-width: 0.8"/>
      </g>
     </g>
    </g>
    <g id="xtick_11">
     <g id="line2d_33">
      <path d="M 525.784503 444.249167 
L 525.784503 252.964583 
" clip-path="url(#pcd6a0bd5e7)" style="fill: none; stroke: #b0b0b0; stroke-opacity: 0.3; stroke-width: 0.8; stroke-linecap: square"/>
     </g>
     <g id="line2d_34">
      <g>
       <use xlink:href="#m175f3b5b7f" x="525.784503" y="444.249167" style="stroke: #000000; stroke-width: 0.8"/>
      </g>
     </g>
    </g>
    <g id="xtick_12">
     <g id="line2d_35">
      <path d="M 634.551776 444.249167 
L 634.551776 252.964583 
" clip-path="url(#pcd6a0bd5e7)" style="fill: none; stroke: #b0b0b0; stroke-opacity: 0.3; stroke-width: 0.8; stroke-linecap: square"/>
     </g>
     <g id="line2d_36">
      <g>
       <use xlink:href="#m175f3b5b7f" x="634.551776" y="444.249167" style="stroke: #000000; stroke-width: 0.8"/>
      </g>
     </g>
    </g>
   </g>
   <g id="matplotlib.axis_4">
    <g id="ytick_6">
     <g id="line2d_37">
      <path d="M 63.523594 399.774219 
L 661.743594 399.774219 
" clip-path="url(#pcd6a0bd5e7)" style="fill: none; stroke: #b0b0b0; stroke-opacity: 0.3; stroke-width: 0.8; stroke-linecap: square"/>
     </g>
     <g id="line2d_38">
      <g>
       <use xlink:href="#md5b375389f" x="63.523594" y="399.774219" style="stroke: #000000; stroke-width: 0.8"/>
      </g>
     </g>
     <g id="text_8">
      <!-- $\mathdefault{10^{-2}}$ -->
      <g transform="translate(30.783594 403.95336) scale(0.11 -0.11)">
       <use xlink:href="#DejaVuSerif-31" transform="translate(0 0.7125)"/>
       <use xlink:href="#DejaVuSerif-30" transform="translate(63.623047 0.7125)"/>
       <use xlink:href="#DejaVuSerif-2212" transform="translate(128.154453 37.046875) scale(0.7)"/>
       <use xlink:href="#DejaVuSerif-32" transform="translate(186.806797 37.046875) scale(0.7)"/>
      </g>
     </g>
    </g>
    <g id="ytick_7">
     <g id="line2d_39">
      <path d="M 63.523594 292.619891 
L 661.743594 292.619891 
" clip-path="url(#pcd6a0bd5e7)" style="fill: none; stroke: #b0b0b0; stroke-opacity: 0.3; stroke-width: 0.8; stroke-linecap: square"/>
     </g>
     <g id="line2d_40">
      <g>
       <use xlink:href="#md5b375389f" x="63.523594" y="292.619891" style="stroke: #000000; stroke-width: 0.8"/>
      </g>
     </g>
     <g id="text_9">
      <!-- $\mathdefault{10^{-1}}$ -->
      <g transform="translate(30.783594 296.799031) scale(0.11 -0.11)">
       <use xlink:href="#DejaVuSerif-31" transform="translate(0 0.7125)"/>
       <use xlink:href="#DejaVuSerif-30" transform="translate(63.623047 0.7125)"/>
       <use xlink:href="#DejaVuSerif-2212" transform="translate(128.154453 37.046875) scale(0.7)"/>
       <use xlink:href="#DejaVuSerif-31" transform="translate(186.806797 37.046875) scale(0.7)"/>
      </g>
     </g>
    </g>
    <g id="ytick_8">
     <g id="line2d_41">
      <defs>
       <path id="me156dd97f2" d="M 0 0 
L -2 0 
" style="stroke: #000000; stroke-width: 0.6"/>
      </defs>
      <g>
       <use xlink:href="#me156dd97f2" x="63.523594" y="442.415214" style="stroke: #000000; stroke-width: 0.6"/>
      </g>
     </g>
    </g>
    <g id="ytick_9">
     <g id="line2d_42">
      <g>
       <use xlink:href="#me156dd97f2" x="63.523594" y="432.030886" style="stroke: #000000; stroke-width: 0.6"/>
      </g>
     </g>
    </g>
    <g id="ytick_10">
     <g id="line2d_43">
      <g>
       <use xlink:href="#me156dd97f2" x="63.523594" y="423.546273" style="stroke: #000000; stroke-width: 0.6"/>
      </g>
     </g>
    </g>
    <g id="ytick_11">
     <g id="line2d_44">
      <g>
       <use xlink:href="#me156dd97f2" x="63.523594" y="416.372635" style="stroke: #000000; stroke-width: 0.6"/>
      </g>
     </g>
    </g>
    <g id="ytick_12">
     <g id="line2d_45">
      <g>
       <use xlink:href="#me156dd97f2" x="63.523594" y="410.158547" style="stroke: #000000; stroke-width: 0.6"/>
      </g>
     </g>
    </g>
    <g id="ytick_13">
     <g id="line2d_46">
      <g>
       <use xlink:href="#me156dd97f2" x="63.523594" y="404.677333" style="stroke: #000000; stroke-width: 0.6"/>
      </g>
     </g>
    </g>
    <g id="ytick_14">
     <g id="line2d_47">
      <g>
       <use xlink:href="#me156dd97f2" x="63.523594" y="367.517552" style="stroke: #000000; stroke-width: 0.6"/>
      </g>
     </g>
    </g>
    <g id="ytick_15">
     <g id="line2d_48">
      <g>
       <use xlink:href="#me156dd97f2" x="63.523594" y="348.648612" style="stroke: #000000; stroke-width: 0.6"/>
      </g>
     </g>
    </g>
    <g id="ytick_16">
     <g id="line2d_49">
      <g>
       <use xlink:href="#me156dd97f2" x="63.523594" y="335.260885" style="stroke: #000000; stroke-width: 0.6"/>
      </g>
     </g>
    </g>
    <g id="ytick_17">
     <g id="line2d_50">
      <g>
       <use xlink:href="#me156dd97f2" x="63.523594" y="324.876558" style="stroke: #000000; stroke-width: 0.6"/>
      </g>
     </g>
    </g>
    <g id="ytick_18">
     <g id="line2d_51">
      <g>
       <use xlink:href="#me156dd97f2" x="63.523594" y="316.391944" style="stroke: #000000; stroke-width: 0.6"/>
      </g>
     </g>
    </g>
    <g id="ytick_19">
     <g id="line2d_52">
      <g>
       <use xlink:href="#me156dd97f2" x="63.523594" y="309.218306" style="stroke: #000000; stroke-width: 0.6"/>
      </g>
     </g>
    </g>
    <g id="ytick_20">
     <g id="line2d_53">
      <g>
       <use xlink:href="#me156dd97f2" x="63.523594" y="303.004218" style="stroke: #000000; stroke-width: 0.6"/>
      </g>
     </g>
    </g>
    <g id="ytick_21">
     <g id="line2d_54">
      <g>
       <use xlink:href="#me156dd97f2" x="63.523594" y="297.523004" style="stroke: #000000; stroke-width: 0.6"/>
      </g>
     </g>
    </g>
    <g id="ytick_22">
     <g id="line2d_55">
      <g>
       <use xlink:href="#me156dd97f2" x="63.523594" y="260.363223" style="stroke: #000000; stroke-width: 0.6"/>
      </g>
     </g>
    </g>
    <g id="text_10">
     <!-- Curvature -->
     <g transform="translate(24.287969 379.592187) rotate(-90) scale(0.12 -0.12)">
      <use xlink:href="#DejaVuSerif-43"/>
      <use xlink:href="#DejaVuSerif-75" transform="translate(76.513672 0)"/>
      <use xlink:href="#DejaVuSerif-72" transform="translate(140.917969 0)"/>
      <use xlink:href="#DejaVuSerif-76" transform="translate(188.720703 0)"/>
      <use xlink:href="#DejaVuSerif-61" transform="translate(245.214844 0)"/>
      <use xlink:href="#DejaVuSerif-74" transform="translate(304.833984 0)"/>
      <use xlink:href="#DejaVuSerif-75" transform="translate(345.019531 0)"/>
      <use xlink:href="#DejaVuSerif-72" transform="translate(409.423828 0)"/>
      <use xlink:href="#DejaVuSerif-65" transform="translate(457.226562 0)"/>
     </g>
    </g>
   </g>
   <g id="line2d_56">
    <path d="M 90.715412 306.074419 
L 96.208709 304.092067 
L 101.702005 301.712287 
L 107.195302 298.987248 
L 112.688598 295.98418 
L 118.181895 292.780084 
L 123.675192 289.456007 
L 129.168488 286.091886 
L 134.661785 282.762588 
L 140.155081 279.535347 
L 145.648378 276.468478 
L 151.141675 273.611099 
L 156.634971 271.003515 
L 162.128268 268.677997 
L 167.621564 266.65972 
L 173.114861 264.967709 
L 178.608158 263.615706 
L 184.101454 262.612907 
L 189.594751 261.96454 
L 195.088047 261.672291 
L 200.581344 261.734569 
L 206.074641 262.14664 
L 211.567937 262.90062 
L 217.061234 263.985368 
L 222.55453 265.386278 
L 228.047827 267.085009 
L 233.541124 269.05919 
L 239.03442 271.282135 
L 244.527717 273.722652 
L 250.021013 276.345006 
L 255.51431 279.109136 
L 261.007607 281.971209 
L 266.500903 284.884573 
L 271.9942 287.801141 
L 277.487496 290.673125 
L 282.980793 293.45496 
L 288.47409 296.105156 
L 293.967386 298.58773 
L 299.460683 300.87289 
L 304.953979 302.936734 
L 310.447276 304.759921 
L 315.940573 306.325499 
L 321.433869 307.61632 
L 326.927166 308.612624 
L 332.420462 309.290468 
L 337.913759 309.621578 
L 343.407056 309.575044 
L 348.900352 309.120898 
L 354.393649 308.235141 
L 359.886945 306.905332 
L 365.380242 305.135477 
L 370.873539 302.949002 
L 376.366835 300.389019 
L 381.860132 297.515816 
L 387.353428 294.402225 
L 392.846725 291.127968 
L 398.340022 287.774117 
L 403.833318 284.418482 
L 409.326615 281.132349 
L 414.819911 277.978582 
L 420.313208 275.010885 
L 425.806505 272.273888 
L 431.299801 269.803769 
L 436.793098 267.629131 
L 442.286394 265.771958 
L 447.779691 264.248532 
L 453.272988 263.070242 
L 458.766284 262.244235 
L 464.259581 261.773926 
L 469.752877 261.659337 
L 475.246174 261.897299 
L 480.739471 262.481509 
L 486.232767 263.402476 
L 491.726064 264.647358 
L 497.219361 266.199716 
L 502.712657 268.039232 
L 508.205954 270.141409 
L 513.69925 272.477325 
L 519.192547 275.013506 
L 524.685844 277.712009 
L 530.17914 280.530793 
L 535.672437 283.42447 
L 541.165733 286.345472 
L 546.65903 289.245629 
L 552.152327 292.07802 
L 557.645623 294.798903 
L 563.13892 297.369404 
L 568.632216 299.756608 
L 574.125513 301.93377 
L 579.61881 303.879495 
L 585.112106 305.575948 
L 590.605403 307.006404 
L 596.098699 308.152675 
L 601.591996 308.99303 
L 607.085293 309.501268 
L 612.578589 309.647465 
L 618.071886 309.400628 
L 623.565182 308.733083 
L 629.058479 307.625925 
L 634.551776 306.074419 
" clip-path="url(#pcd6a0bd5e7)" style="fill: none; stroke: #008000; stroke-width: 1.5; stroke-linecap: square"/>
   </g>
   <g id="line2d_57">
    <path d="M 90.715412 435.554413 
L 96.208709 434.897876 
L 101.702005 433.343163 
L 107.195302 430.990052 
L 112.688598 427.98291 
L 118.181895 424.48622 
L 123.675192 420.66291 
L 129.168488 416.659647 
L 134.661785 412.59957 
L 140.155081 408.580764 
L 145.648378 404.678217 
L 151.141675 400.947361 
L 156.634971 397.427986 
L 162.128268 394.147866 
L 167.621564 391.125826 
L 173.114861 388.374207 
L 178.608158 385.900786 
L 184.101454 383.710223 
L 189.594751 381.805155 
L 195.088047 380.186998 
L 200.581344 378.856522 
L 206.074641 377.814258 
L 211.567937 377.060752 
L 217.061234 376.596688 
L 222.55453 376.422892 
L 228.047827 376.540205 
L 233.541124 376.949233 
L 239.03442 377.649975 
L 244.527717 378.641337 
L 250.021013 379.920597 
L 255.51431 381.482867 
L 261.007607 383.320676 
L 266.500903 385.423781 
L 271.9942 387.779299 
L 277.487496 390.372186 
L 282.980793 393.185958 
L 288.47409 396.203414 
L 293.967386 399.406968 
L 299.460683 402.778174 
L 304.953979 406.296044 
L 310.447276 409.933977 
L 315.940573 413.655336 
L 321.433869 417.408103 
L 326.927166 421.11935 
L 332.420462 424.690815 
L 337.913759 427.997325 
L 343.407056 430.890336 
L 348.900352 433.208703 
L 354.393649 434.797411 
L 359.886945 435.531972 
L 365.380242 435.342301 
L 370.873539 434.227876 
L 376.366835 432.258144 
L 381.860132 429.558144 
L 387.353428 426.285328 
L 392.846725 422.605726 
L 398.340022 418.675485 
L 403.833318 414.630004 
L 409.326615 410.579817 
L 414.819911 406.611082 
L 420.313208 402.788519 
L 425.806505 399.15926 
L 431.299801 395.756665 
L 436.793098 392.603687 
L 442.286394 389.71564 
L 447.779691 387.102372 
L 453.272988 384.769946 
L 458.766284 382.721893 
L 464.259581 380.960155 
L 469.752877 379.485764 
L 475.246174 378.299331 
L 480.739471 377.401371 
L 486.232767 376.79249 
L 491.726064 376.473452 
L 497.219361 376.445113 
L 502.712657 376.708235 
L 508.205954 377.263177 
L 513.69925 378.109454 
L 519.192547 379.245229 
L 524.685844 380.666759 
L 530.17914 382.367904 
L 535.672437 384.339813 
L 541.165733 386.570885 
L 546.65903 389.047077 
L 552.152327 391.752526 
L 557.645623 394.670315 
L 563.13892 397.783048 
L 568.632216 401.072838 
L 574.125513 404.520261 
L 579.61881 408.101998 
L 585.112106 411.787052 
L 590.605403 415.5318 
L 596.098699 419.274426 
L 601.591996 422.929759 
L 607.085293 426.386012 
L 612.578589 429.505476 
L 618.071886 432.131452 
L 623.565182 434.103062 
L 629.058479 435.277355 
L 634.551776 435.554413 
" clip-path="url(#pcd6a0bd5e7)" style="fill: none; stroke: #ff0000; stroke-opacity: 0.7; stroke-width: 1.5; stroke-linecap: square"/>
   </g>
   <g id="patch_8">
    <path d="M 63.523594 444.249167 
L 63.523594 252.964583 
" style="fill: none; stroke: #000000; stroke-width: 0.8; stroke-linejoin: miter; stroke-linecap: square"/>
   </g>
   <g id="patch_9">
    <path d="M 661.743594 444.249167 
L 661.743594 252.964583 
" style="fill: none; stroke: #000000; stroke-width: 0.8; stroke-linejoin: miter; stroke-linecap: square"/>
   </g>
   <g id="patch_10">
    <path d="M 63.523594 444.249167 
L 661.743594 444.249167 
" style="fill: none; stroke: #000000; stroke-width: 0.8; stroke-linejoin: miter; stroke-linecap: square"/>
   </g>
   <g id="patch_11">
    <path d="M 63.523594 252.964583 
L 661.743594 252.964583 
" style="fill: none; stroke: #000000; stroke-width: 0.8; stroke-linejoin: miter; stroke-linecap: square"/>
   </g>
   <g id="text_11">
    <!-- Curvature Statistics -->
    <g transform="translate(296.367109 246.964583) scale(0.13 -0.13)">
     <defs>
      <path id="DejaVuSerif-53" d="M 594 225 
L 594 1288 
L 953 1284 
Q 969 753 1261 498 
Q 1553 244 2150 244 
Q 2706 244 2998 464 
Q 3291 684 3291 1106 
Q 3291 1444 3114 1625 
Q 2938 1806 2369 1978 
L 1753 2163 
Q 1084 2366 811 2669 
Q 538 2972 538 3500 
Q 538 4094 959 4422 
Q 1381 4750 2144 4750 
Q 2469 4750 2856 4679 
Q 3244 4609 3681 4475 
L 3681 3481 
L 3328 3481 
Q 3275 3975 2998 4195 
Q 2722 4416 2156 4416 
Q 1663 4416 1405 4214 
Q 1147 4013 1147 3628 
Q 1147 3294 1340 3103 
Q 1534 2913 2163 2725 
L 2741 2553 
Q 3375 2363 3645 2067 
Q 3916 1772 3916 1275 
Q 3916 597 3481 253 
Q 3047 -91 2188 -91 
Q 1803 -91 1404 -12 
Q 1006 66 594 225 
z
" transform="scale(0.015625)"/>
      <path id="DejaVuSerif-73" d="M 359 184 
L 359 959 
L 691 959 
Q 703 588 923 403 
Q 1144 219 1575 219 
Q 1963 219 2166 364 
Q 2369 509 2369 788 
Q 2369 1006 2220 1140 
Q 2072 1275 1594 1428 
L 1178 1569 
Q 750 1706 558 1912 
Q 366 2119 366 2438 
Q 366 2894 700 3153 
Q 1034 3413 1625 3413 
Q 1888 3413 2178 3344 
Q 2469 3275 2778 3144 
L 2778 2419 
L 2447 2419 
Q 2434 2741 2221 2922 
Q 2009 3103 1644 3103 
Q 1281 3103 1095 2975 
Q 909 2847 909 2591 
Q 909 2381 1050 2254 
Q 1191 2128 1613 1997 
L 2069 1856 
Q 2541 1709 2748 1489 
Q 2956 1269 2956 922 
Q 2956 450 2595 179 
Q 2234 -91 1600 -91 
Q 1278 -91 972 -22 
Q 666 47 359 184 
z
" transform="scale(0.015625)"/>
     </defs>
     <use xlink:href="#DejaVuSerif-43"/>
     <use xlink:href="#DejaVuSerif-75" transform="translate(76.513672 0)"/>
     <use xlink:href="#DejaVuSerif-72" transform="translate(140.917969 0)"/>
     <use xlink:href="#DejaVuSerif-76" transform="translate(188.720703 0)"/>
     <use xlink:href="#DejaVuSerif-61" transform="translate(245.214844 0)"/>
     <use xlink:href="#DejaVuSerif-74" transform="translate(304.833984 0)"/>
     <use xlink:href="#DejaVuSerif-75" transform="translate(345.019531 0)"/>
     <use xlink:href="#DejaVuSerif-72" transform="translate(409.423828 0)"/>
     <use xlink:href="#DejaVuSerif-65" transform="translate(457.226562 0)"/>
     <use xlink:href="#DejaVuSerif-20" transform="translate(516.40625 0)"/>
     <use xlink:href="#DejaVuSerif-53" transform="translate(548.193359 0)"/>
     <use xlink:href="#DejaVuSerif-74" transform="translate(616.699219 0)"/>
     <use xlink:href="#DejaVuSerif-61" transform="translate(656.884766 0)"/>
     <use xlink:href="#DejaVuSerif-74" transform="translate(716.503906 0)"/>
     <use xlink:href="#DejaVuSerif-69" transform="translate(756.689453 0)"/>
     <use xlink:href="#DejaVuSerif-73" transform="translate(788.671875 0)"/>
     <use xlink:href="#DejaVuSerif-74" transform="translate(839.990234 0)"/>
     <use xlink:href="#DejaVuSerif-69" transform="translate(880.175781 0)"/>
     <use xlink:href="#DejaVuSerif-63" transform="translate(912.158203 0)"/>
     <use xlink:href="#DejaVuSerif-73" transform="translate(968.164062 0)"/>
    </g>
   </g>
   <g id="legend_1">
    <g id="patch_12">
     <path d="M 593.743594 291.164583 
L 654.743594 291.164583 
Q 656.743594 291.164583 656.743594 289.164583 
L 656.743594 259.964583 
Q 656.743594 257.964583 654.743594 257.964583 
L 593.743594 257.964583 
Q 591.743594 257.964583 591.743594 259.964583 
L 591.743594 289.164583 
Q 591.743594 291.164583 593.743594 291.164583 
z
" style="fill: #ffffff; opacity: 0.8; stroke: #cccccc; stroke-linejoin: miter"/>
    </g>
    <g id="line2d_58">
     <path d="M 595.743594 266.164583 
L 605.743594 266.164583 
L 615.743594 266.164583 
" style="fill: none; stroke: #008000; stroke-width: 1.5; stroke-linecap: square"/>
    </g>
    <g id="text_12">
     <!-- $|K|_{\max}$ -->
     <g transform="translate(623.743594 269.664583) scale(0.1 -0.1)">
      <defs>
       <path id="DejaVuSans-7c" d="M 1344 4891 
L 1344 -1509 
L 813 -1509 
L 813 4891 
L 1344 4891 
z
" transform="scale(0.015625)"/>
       <path id="DejaVuSans-6d" d="M 3328 2828 
Q 3544 3216 3844 3400 
Q 4144 3584 4550 3584 
Q 5097 3584 5394 3201 
Q 5691 2819 5691 2113 
L 5691 0 
L 5113 0 
L 5113 2094 
Q 5113 2597 4934 2840 
Q 4756 3084 4391 3084 
Q 3944 3084 3684 2787 
Q 3425 2491 3425 1978 
L 3425 0 
L 2847 0 
L 2847 2094 
Q 2847 2600 2669 2842 
Q 2491 3084 2119 3084 
Q 1678 3084 1418 2786 
Q 1159 2488 1159 1978 
L 1159 0 
L 581 0 
L 581 3500 
L 1159 3500 
L 1159 2956 
Q 1356 3278 1631 3431 
Q 1906 3584 2284 3584 
Q 2666 3584 2933 3390 
Q 3200 3197 3328 2828 
z
" transform="scale(0.015625)"/>
       <path id="DejaVuSans-61" d="M 2194 1759 
Q 1497 1759 1228 1600 
Q 959 1441 959 1056 
Q 959 750 1161 570 
Q 1363 391 1709 391 
Q 2188 391 2477 730 
Q 2766 1069 2766 1631 
L 2766 1759 
L 2194 1759 
z
M 3341 1997 
L 3341 0 
L 2766 0 
L 2766 531 
Q 2569 213 2275 61 
Q 1981 -91 1556 -91 
Q 1019 -91 701 211 
Q 384 513 384 1019 
Q 384 1609 779 1909 
Q 1175 2209 1959 2209 
L 2766 2209 
L 2766 2266 
Q 2766 2663 2505 2880 
Q 2244 3097 1772 3097 
Q 1472 3097 1187 3025 
Q 903 2953 641 2809 
L 641 3341 
Q 956 3463 1253 3523 
Q 1550 3584 1831 3584 
Q 2591 3584 2966 3190 
Q 3341 2797 3341 1997 
z
" transform="scale(0.015625)"/>
       <path id="DejaVuSans-78" d="M 3513 3500 
L 2247 1797 
L 3578 0 
L 2900 0 
L 1881 1375 
L 863 0 
L 184 0 
L 1544 1831 
L 300 3500 
L 978 3500 
L 1906 2253 
L 2834 3500 
L 3513 3500 
z
" transform="scale(0.015625)"/>
      </defs>
      <use xlink:href="#DejaVuSans-7c" transform="translate(0 0.578125)"/>
      <use xlink:href="#DejaVuSans-Oblique-4b" transform="translate(33.691406 0.578125)"/>
      <use xlink:href="#DejaVuSans-7c" transform="translate(99.267578 0.578125)"/>
      <use xlink:href="#DejaVuSans-6d" transform="translate(133.916016 -15.828125) scale(0.7)"/>
      <use xlink:href="#DejaVuSans-61" transform="translate(202.104492 -15.828125) scale(0.7)"/>
      <use xlink:href="#DejaVuSans-78" transform="translate(245 -15.828125) scale(0.7)"/>
     </g>
    </g>
    <g id="line2d_59">
     <path d="M 595.743594 281.264583 
L 605.743594 281.264583 
L 615.743594 281.264583 
" style="fill: none; stroke: #ff0000; stroke-opacity: 0.7; stroke-width: 1.5; stroke-linecap: square"/>
    </g>
    <g id="text_13">
     <!-- $|\langle K \rangle|$ -->
     <g transform="translate(623.743594 284.764583) scale(0.1 -0.1)">
      <defs>
       <path id="DejaVuSans-27e8" d="M 572 2006 
L 1453 4856 
L 1984 4856 
L 1103 2006 
L 1984 -844 
L 1453 -844 
L 572 2006 
z
" transform="scale(0.015625)"/>
       <path id="DejaVuSans-27e9" d="M 1925 2006 
L 1044 -844 
L 513 -844 
L 1394 2006 
L 513 4856 
L 1044 4856 
L 1925 2006 
z
" transform="scale(0.015625)"/>
      </defs>
      <use xlink:href="#DejaVuSans-7c" transform="translate(0 0.578125)"/>
      <use xlink:href="#DejaVuSans-27e8" transform="translate(33.691406 0.578125)"/>
      <use xlink:href="#DejaVuSans-Oblique-4b" transform="translate(72.705078 0.578125)"/>
      <use xlink:href="#DejaVuSans-27e9" transform="translate(138.28125 0.578125)"/>
      <use xlink:href="#DejaVuSans-7c" transform="translate(177.294922 0.578125)"/>
     </g>
    </g>
   </g>
  </g>
  <g id="axes_3">
   <g id="patch_13">
    <path d="M 63.523594 669.97375 
L 661.743594 669.97375 
L 661.743594 478.689167 
L 63.523594 478.689167 
z
" style="fill: #ffffff"/>
   </g>
   <g id="matplotlib.axis_5">
    <g id="xtick_13">
     <g id="line2d_60">
      <path d="M 90.715412 669.97375 
L 90.715412 478.689167 
" clip-path="url(#p4ef178868e)" style="fill: none; stroke: #b0b0b0; stroke-opacity: 0.3; stroke-width: 0.8; stroke-linecap: square"/>
     </g>
     <g id="line2d_61">
      <g>
       <use xlink:href="#m175f3b5b7f" x="90.715412" y="669.97375" style="stroke: #000000; stroke-width: 0.8"/>
      </g>
     </g>
     <g id="text_14">
      <!-- 0 -->
      <g transform="translate(87.216037 685.332031) scale(0.11 -0.11)">
       <use xlink:href="#DejaVuSerif-30"/>
      </g>
     </g>
    </g>
    <g id="xtick_14">
     <g id="line2d_62">
      <path d="M 199.482685 669.97375 
L 199.482685 478.689167 
" clip-path="url(#p4ef178868e)" style="fill: none; stroke: #b0b0b0; stroke-opacity: 0.3; stroke-width: 0.8; stroke-linecap: square"/>
     </g>
     <g id="line2d_63">
      <g>
       <use xlink:href="#m175f3b5b7f" x="199.482685" y="669.97375" style="stroke: #000000; stroke-width: 0.8"/>
      </g>
     </g>
     <g id="text_15">
      <!-- 20 -->
      <g transform="translate(192.483935 685.332031) scale(0.11 -0.11)">
       <use xlink:href="#DejaVuSerif-32"/>
       <use xlink:href="#DejaVuSerif-30" transform="translate(63.623047 0)"/>
      </g>
     </g>
    </g>
    <g id="xtick_15">
     <g id="line2d_64">
      <path d="M 308.249957 669.97375 
L 308.249957 478.689167 
" clip-path="url(#p4ef178868e)" style="fill: none; stroke: #b0b0b0; stroke-opacity: 0.3; stroke-width: 0.8; stroke-linecap: square"/>
     </g>
     <g id="line2d_65">
      <g>
       <use xlink:href="#m175f3b5b7f" x="308.249957" y="669.97375" style="stroke: #000000; stroke-width: 0.8"/>
      </g>
     </g>
     <g id="text_16">
      <!-- 40 -->
      <g transform="translate(301.251207 685.332031) scale(0.11 -0.11)">
       <use xlink:href="#DejaVuSerif-34"/>
       <use xlink:href="#DejaVuSerif-30" transform="translate(63.623047 0)"/>
      </g>
     </g>
    </g>
    <g id="xtick_16">
     <g id="line2d_66">
      <path d="M 417.01723 669.97375 
L 417.01723 478.689167 
" clip-path="url(#p4ef178868e)" style="fill: none; stroke: #b0b0b0; stroke-opacity: 0.3; stroke-width: 0.8; stroke-linecap: square"/>
     </g>
     <g id="line2d_67">
      <g>
       <use xlink:href="#m175f3b5b7f" x="417.01723" y="669.97375" style="stroke: #000000; stroke-width: 0.8"/>
      </g>
     </g>
     <g id="text_17">
      <!-- 60 -->
      <g transform="translate(410.01848 685.332031) scale(0.11 -0.11)">
       <defs>
        <path id="DejaVuSerif-36" d="M 2094 219 
Q 2534 219 2771 542 
Q 3009 866 3009 1472 
Q 3009 2078 2771 2401 
Q 2534 2725 2094 2725 
Q 1647 2725 1412 2412 
Q 1178 2100 1178 1509 
Q 1178 888 1415 553 
Q 1653 219 2094 219 
z
M 1075 2569 
Q 1288 2803 1556 2918 
Q 1825 3034 2163 3034 
Q 2859 3034 3264 2615 
Q 3669 2197 3669 1472 
Q 3669 763 3233 336 
Q 2797 -91 2069 -91 
Q 1278 -91 853 498 
Q 428 1088 428 2181 
Q 428 3406 931 4078 
Q 1434 4750 2350 4750 
Q 2597 4750 2869 4703 
Q 3141 4656 3425 4563 
L 3425 3794 
L 3072 3794 
Q 3034 4109 2831 4275 
Q 2628 4441 2284 4441 
Q 1678 4441 1381 3981 
Q 1084 3522 1075 2569 
z
" transform="scale(0.015625)"/>
       </defs>
       <use xlink:href="#DejaVuSerif-36"/>
       <use xlink:href="#DejaVuSerif-30" transform="translate(63.623047 0)"/>
      </g>
     </g>
    </g>
    <g id="xtick_17">
     <g id="line2d_68">
      <path d="M 525.784503 669.97375 
L 525.784503 478.689167 
" clip-path="url(#p4ef178868e)" style="fill: none; stroke: #b0b0b0; stroke-opacity: 0.3; stroke-width: 0.8; stroke-linecap: square"/>
     </g>
     <g id="line2d_69">
      <g>
       <use xlink:href="#m175f3b5b7f" x="525.784503" y="669.97375" style="stroke: #000000; stroke-width: 0.8"/>
      </g>
     </g>
     <g id="text_18">
      <!-- 80 -->
      <g transform="translate(518.785753 685.332031) scale(0.11 -0.11)">
       <defs>
        <path id="DejaVuSerif-38" d="M 2981 1275 
Q 2981 1775 2732 2051 
Q 2484 2328 2034 2328 
Q 1584 2328 1336 2051 
Q 1088 1775 1088 1275 
Q 1088 772 1336 495 
Q 1584 219 2034 219 
Q 2484 219 2732 495 
Q 2981 772 2981 1275 
z
M 2853 3541 
Q 2853 3966 2637 4203 
Q 2422 4441 2034 4441 
Q 1650 4441 1433 4203 
Q 1216 3966 1216 3541 
Q 1216 3113 1433 2875 
Q 1650 2638 2034 2638 
Q 2422 2638 2637 2875 
Q 2853 3113 2853 3541 
z
M 2516 2484 
Q 3047 2413 3344 2092 
Q 3641 1772 3641 1275 
Q 3641 619 3225 264 
Q 2809 -91 2034 -91 
Q 1263 -91 845 264 
Q 428 619 428 1275 
Q 428 1772 725 2092 
Q 1022 2413 1556 2484 
Q 1084 2569 832 2842 
Q 581 3116 581 3541 
Q 581 4103 968 4426 
Q 1356 4750 2034 4750 
Q 2713 4750 3100 4426 
Q 3488 4103 3488 3541 
Q 3488 3116 3236 2842 
Q 2984 2569 2516 2484 
z
" transform="scale(0.015625)"/>
       </defs>
       <use xlink:href="#DejaVuSerif-38"/>
       <use xlink:href="#DejaVuSerif-30" transform="translate(63.623047 0)"/>
      </g>
     </g>
    </g>
    <g id="xtick_18">
     <g id="line2d_70">
      <path d="M 634.551776 669.97375 
L 634.551776 478.689167 
" clip-path="url(#p4ef178868e)" style="fill: none; stroke: #b0b0b0; stroke-opacity: 0.3; stroke-width: 0.8; stroke-linecap: square"/>
     </g>
     <g id="line2d_71">
      <g>
       <use xlink:href="#m175f3b5b7f" x="634.551776" y="669.97375" style="stroke: #000000; stroke-width: 0.8"/>
      </g>
     </g>
     <g id="text_19">
      <!-- 100 -->
      <g transform="translate(624.053651 685.332031) scale(0.11 -0.11)">
       <use xlink:href="#DejaVuSerif-31"/>
       <use xlink:href="#DejaVuSerif-30" transform="translate(63.623047 0)"/>
       <use xlink:href="#DejaVuSerif-30" transform="translate(127.246094 0)"/>
      </g>
     </g>
    </g>
    <g id="text_20">
     <!-- Time $t$ -->
     <g transform="translate(343.193594 700.737812) scale(0.12 -0.12)">
      <defs>
       <path id="DejaVuSerif-6d" d="M 3316 2675 
Q 3481 3041 3739 3227 
Q 3997 3413 4341 3413 
Q 4863 3413 5119 3089 
Q 5375 2766 5375 2113 
L 5375 331 
L 5894 331 
L 5894 0 
L 4300 0 
L 4300 331 
L 4800 331 
L 4800 2047 
Q 4800 2556 4650 2772 
Q 4500 2988 4153 2988 
Q 3769 2988 3567 2697 
Q 3366 2406 3366 1850 
L 3366 331 
L 3866 331 
L 3866 0 
L 2291 0 
L 2291 331 
L 2791 331 
L 2791 2069 
Q 2791 2566 2641 2777 
Q 2491 2988 2144 2988 
Q 1759 2988 1557 2697 
Q 1356 2406 1356 1850 
L 1356 331 
L 1856 331 
L 1856 0 
L 263 0 
L 263 331 
L 781 331 
L 781 2994 
L 231 2994 
L 231 3322 
L 1356 3322 
L 1356 2731 
Q 1516 3063 1762 3238 
Q 2009 3413 2322 3413 
Q 2709 3413 2968 3220 
Q 3228 3028 3316 2675 
z
" transform="scale(0.015625)"/>
       <path id="DejaVuSans-Oblique-74" d="M 2706 3500 
L 2619 3053 
L 1472 3053 
L 1100 1153 
Q 1081 1047 1072 975 
Q 1063 903 1063 863 
Q 1063 663 1183 572 
Q 1303 481 1569 481 
L 2150 481 
L 2053 0 
L 1503 0 
Q 991 0 739 200 
Q 488 400 488 806 
Q 488 878 497 964 
Q 506 1050 525 1153 
L 897 3053 
L 409 3053 
L 500 3500 
L 978 3500 
L 1172 4494 
L 1747 4494 
L 1556 3500 
L 2706 3500 
z
" transform="scale(0.015625)"/>
      </defs>
      <use xlink:href="#DejaVuSerif-54" transform="translate(0 0.421875)"/>
      <use xlink:href="#DejaVuSerif-69" transform="translate(66.699219 0.421875)"/>
      <use xlink:href="#DejaVuSerif-6d" transform="translate(98.681641 0.421875)"/>
      <use xlink:href="#DejaVuSerif-65" transform="translate(193.505859 0.421875)"/>
      <use xlink:href="#DejaVuSerif-20" transform="translate(252.685547 0.421875)"/>
      <use xlink:href="#DejaVuSans-Oblique-74" transform="translate(284.472656 0.421875)"/>
     </g>
    </g>
   </g>
   <g id="matplotlib.axis_6">
    <g id="ytick_23">
     <g id="line2d_72">
      <path d="M 63.523594 639.536639 
L 661.743594 639.536639 
" clip-path="url(#p4ef178868e)" style="fill: none; stroke: #b0b0b0; stroke-opacity: 0.3; stroke-width: 0.8; stroke-linecap: square"/>
     </g>
     <g id="line2d_73">
      <g>
       <use xlink:href="#md5b375389f" x="63.523594" y="639.536639" style="stroke: #000000; stroke-width: 0.8"/>
      </g>
     </g>
     <g id="text_21">
      <!-- 0.2 -->
      <g transform="translate(39.030156 643.715779) scale(0.11 -0.11)">
       <use xlink:href="#DejaVuSerif-30"/>
       <use xlink:href="#DejaVuSerif-2e" transform="translate(63.623047 0)"/>
       <use xlink:href="#DejaVuSerif-32" transform="translate(95.410156 0)"/>
      </g>
     </g>
    </g>
    <g id="ytick_24">
     <g id="line2d_74">
      <path d="M 63.523594 596.051923 
L 661.743594 596.051923 
" clip-path="url(#p4ef178868e)" style="fill: none; stroke: #b0b0b0; stroke-opacity: 0.3; stroke-width: 0.8; stroke-linecap: square"/>
     </g>
     <g id="line2d_75">
      <g>
       <use xlink:href="#md5b375389f" x="63.523594" y="596.051923" style="stroke: #000000; stroke-width: 0.8"/>
      </g>
     </g>
     <g id="text_22">
      <!-- 0.4 -->
      <g transform="translate(39.030156 600.231064) scale(0.11 -0.11)">
       <use xlink:href="#DejaVuSerif-30"/>
       <use xlink:href="#DejaVuSerif-2e" transform="translate(63.623047 0)"/>
       <use xlink:href="#DejaVuSerif-34" transform="translate(95.410156 0)"/>
      </g>
     </g>
    </g>
    <g id="ytick_25">
     <g id="line2d_76">
      <path d="M 63.523594 552.567208 
L 661.743594 552.567208 
" clip-path="url(#p4ef178868e)" style="fill: none; stroke: #b0b0b0; stroke-opacity: 0.3; stroke-width: 0.8; stroke-linecap: square"/>
     </g>
     <g id="line2d_77">
      <g>
       <use xlink:href="#md5b375389f" x="63.523594" y="552.567208" style="stroke: #000000; stroke-width: 0.8"/>
      </g>
     </g>
     <g id="text_23">
      <!-- 0.6 -->
      <g transform="translate(39.030156 556.746349) scale(0.11 -0.11)">
       <use xlink:href="#DejaVuSerif-30"/>
       <use xlink:href="#DejaVuSerif-2e" transform="translate(63.623047 0)"/>
       <use xlink:href="#DejaVuSerif-36" transform="translate(95.410156 0)"/>
      </g>
     </g>
    </g>
    <g id="ytick_26">
     <g id="line2d_78">
      <path d="M 63.523594 509.082493 
L 661.743594 509.082493 
" clip-path="url(#p4ef178868e)" style="fill: none; stroke: #b0b0b0; stroke-opacity: 0.3; stroke-width: 0.8; stroke-linecap: square"/>
     </g>
     <g id="line2d_79">
      <g>
       <use xlink:href="#md5b375389f" x="63.523594" y="509.082493" style="stroke: #000000; stroke-width: 0.8"/>
      </g>
     </g>
     <g id="text_24">
      <!-- 0.8 -->
      <g transform="translate(39.030156 513.261633) scale(0.11 -0.11)">
       <use xlink:href="#DejaVuSerif-30"/>
       <use xlink:href="#DejaVuSerif-2e" transform="translate(63.623047 0)"/>
       <use xlink:href="#DejaVuSerif-38" transform="translate(95.410156 0)"/>
      </g>
     </g>
    </g>
    <g id="text_25">
     <!-- $\lambda$ -->
     <g transform="translate(32.534531 577.931458) rotate(-90) scale(0.12 -0.12)">
      <defs>
       <path id="DejaVuSans-Oblique-3bb" d="M 2350 4316 
L 3125 0 
L 2516 0 
L 2038 2588 
L 328 0 
L -281 0 
L 1903 3356 
L 1794 3975 
Q 1725 4369 1391 4369 
L 1091 4369 
L 1184 4863 
L 1550 4856 
Q 2253 4847 2350 4316 
z
" transform="scale(0.015625)"/>
      </defs>
      <use xlink:href="#DejaVuSans-Oblique-3bb" transform="translate(0 0.015625)"/>
     </g>
    </g>
   </g>
   <g id="line2d_80">
    <path d="M 90.715412 661.278996 
L 96.208709 660.579311 
L 101.702005 658.491513 
L 107.195302 655.049196 
L 112.688598 650.307748 
L 118.181895 644.343461 
L 123.675192 637.252303 
L 129.168488 629.148372 
L 134.661785 620.162064 
L 140.155081 610.437973 
L 145.648378 600.132562 
L 151.141675 589.411649 
L 156.634971 578.447738 
L 162.128268 567.417242 
L 167.621564 556.497646 
L 173.114861 545.864651 
L 178.608158 535.689345 
L 184.101454 526.135453 
L 189.594751 517.3567 
L 195.088047 509.494341 
L 200.581344 502.674882 
L 206.074641 497.008053 
L 211.567937 492.585033 
L 217.061234 489.476992 
L 222.55453 487.733939 
L 228.047827 487.38392 
L 233.541124 488.432568 
L 239.03442 490.863008 
L 244.527717 494.636135 
L 250.021013 499.691237 
L 255.51431 505.946976 
L 261.007607 513.302694 
L 266.500903 521.640036 
L 271.9942 530.82485 
L 277.487496 540.70935 
L 282.980793 551.13449 
L 288.47409 561.932525 
L 293.967386 572.929712 
L 299.460683 583.949101 
L 304.953979 594.813386 
L 310.447276 605.347757 
L 315.940573 615.382712 
L 321.433869 624.756785 
L 326.927166 633.319143 
L 332.420462 640.932015 
L 337.913759 647.472906 
L 343.407056 652.836573 
L 348.900352 656.93671 
L 354.393649 659.707345 
L 359.886945 661.103899 
L 365.380242 661.103899 
L 370.873539 659.707345 
L 376.366835 656.93671 
L 381.860132 652.836573 
L 387.353428 647.472906 
L 392.846725 640.932015 
L 398.340022 633.319143 
L 403.833318 624.756785 
L 409.326615 615.382712 
L 414.819911 605.347757 
L 420.313208 594.813386 
L 425.806505 583.949101 
L 431.299801 572.929712 
L 436.793098 561.932525 
L 442.286394 551.13449 
L 447.779691 540.70935 
L 453.272988 530.82485 
L 458.766284 521.640036 
L 464.259581 513.302694 
L 469.752877 505.946976 
L 475.246174 499.691237 
L 480.739471 494.636135 
L 486.232767 490.863008 
L 491.726064 488.432568 
L 497.219361 487.38392 
L 502.712657 487.733939 
L 508.205954 489.476992 
L 513.69925 492.585033 
L 519.192547 497.008053 
L 524.685844 502.674882 
L 530.17914 509.494341 
L 535.672437 517.3567 
L 541.165733 526.135453 
L 546.65903 535.689345 
L 552.152327 545.864651 
L 557.645623 556.497646 
L 563.13892 567.417242 
L 568.632216 578.447738 
L 574.125513 589.411649 
L 579.61881 600.132562 
L 585.112106 610.437973 
L 590.605403 620.162064 
L 596.098699 629.148372 
L 601.591996 637.252303 
L 607.085293 644.343461 
L 612.578589 650.307748 
L 618.071886 655.049196 
L 623.565182 658.491513 
L 629.058479 660.579311 
L 634.551776 661.278996 
" clip-path="url(#p4ef178868e)" style="fill: none; stroke: #800080; stroke-width: 2; stroke-linecap: square"/>
   </g>
   <g id="patch_14">
    <path d="M 63.523594 669.97375 
L 63.523594 478.689167 
" style="fill: none; stroke: #000000; stroke-width: 0.8; stroke-linejoin: miter; stroke-linecap: square"/>
   </g>
   <g id="patch_15">
    <path d="M 661.743594 669.97375 
L 661.743594 478.689167 
" style="fill: none; stroke: #000000; stroke-width: 0.8; stroke-linejoin: miter; stroke-linecap: square"/>
   </g>
   <g id="patch_16">
    <path d="M 63.523594 669.97375 
L 661.743594 669.97375 
" style="fill: none; stroke: #000000; stroke-width: 0.8; stroke-linejoin: miter; stroke-linecap: square"/>
   </g>
   <g id="patch_17">
    <path d="M 63.523594 478.689167 
L 661.743594 478.689167 
" style="fill: none; stroke: #000000; stroke-width: 0.8; stroke-linejoin: miter; stroke-linecap: square"/>
   </g>
   <g id="text_26">
    <!-- Coupling Parameter -->
    <g transform="translate(296.312266 472.689167) scale(0.13 -0.13)">
     <defs>
      <path id="DejaVuSerif-50" d="M 1581 2375 
L 2406 2375 
Q 2872 2375 3115 2626 
Q 3359 2878 3359 3353 
Q 3359 3831 3115 4081 
Q 2872 4331 2406 4331 
L 1581 4331 
L 1581 2375 
z
M 353 0 
L 353 331 
L 947 331 
L 947 4331 
L 353 4331 
L 353 4666 
L 2559 4666 
Q 3259 4666 3668 4311 
Q 4078 3956 4078 3353 
Q 4078 2753 3668 2397 
Q 3259 2041 2559 2041 
L 1581 2041 
L 1581 331 
L 2303 331 
L 2303 0 
L 353 0 
z
" transform="scale(0.015625)"/>
     </defs>
     <use xlink:href="#DejaVuSerif-43"/>
     <use xlink:href="#DejaVuSerif-6f" transform="translate(76.513672 0)"/>
     <use xlink:href="#DejaVuSerif-75" transform="translate(136.71875 0)"/>
     <use xlink:href="#DejaVuSerif-70" transform="translate(201.123047 0)"/>
     <use xlink:href="#DejaVuSerif-6c" transform="translate(265.136719 0)"/>
     <use xlink:href="#DejaVuSerif-69" transform="translate(297.119141 0)"/>
     <use xlink:href="#DejaVuSerif-6e" transform="translate(329.101562 0)"/>
     <use xlink:href="#DejaVuSerif-67" transform="translate(393.505859 0)"/>
     <use xlink:href="#DejaVuSerif-20" transform="translate(457.519531 0)"/>
     <use xlink:href="#DejaVuSerif-50" transform="translate(489.306641 0)"/>
     <use xlink:href="#DejaVuSerif-61" transform="translate(552.091797 0)"/>
     <use xlink:href="#DejaVuSerif-72" transform="translate(611.710938 0)"/>
     <use xlink:href="#DejaVuSerif-61" transform="translate(659.513672 0)"/>
     <use xlink:href="#DejaVuSerif-6d" transform="translate(719.132812 0)"/>
     <use xlink:href="#DejaVuSerif-65" transform="translate(813.957031 0)"/>
     <use xlink:href="#DejaVuSerif-74" transform="translate(873.136719 0)"/>
     <use xlink:href="#DejaVuSerif-65" transform="translate(913.322266 0)"/>
     <use xlink:href="#DejaVuSerif-72" transform="translate(972.501953 0)"/>
    </g>
   </g>
  </g>
  <g id="axes_4">
   <g id="FillBetweenPolyCollection_1">
    <defs>
     <path id="m81257af634" d="M 90.715412 -491.908854 
L 90.715412 -496.514754 
L 96.208709 -496.580166 
L 101.702005 -496.73849 
L 107.195302 -496.988291 
L 112.688598 -497.326403 
L 118.181895 -497.747995 
L 123.675192 -498.246677 
L 129.168488 -498.814629 
L 134.661785 -499.442755 
L 140.155081 -500.120852 
L 145.648378 -500.837797 
L 151.141675 -501.581745 
L 156.634971 -502.34033 
L 162.128268 -503.100881 
L 167.621564 -503.850627 
L 173.114861 -504.576914 
L 178.608158 -505.267409 
L 184.101454 -505.910297 
L 189.594751 -506.494476 
L 195.088047 -507.009734 
L 200.581344 -507.446924 
L 206.074641 -507.798132 
L 211.567937 -508.056831 
L 217.061234 -508.21804 
L 222.55453 -508.278483 
L 228.047827 -508.236735 
L 233.541124 -508.093366 
L 239.03442 -507.851057 
L 244.527717 -507.51467 
L 250.021013 -507.091236 
L 255.51431 -506.589829 
L 261.007607 -506.021289 
L 266.500903 -505.397788 
L 271.9942 -504.732257 
L 277.487496 -504.037729 
L 282.980793 -503.326705 
L 288.47409 -502.610647 
L 293.967386 -501.899698 
L 299.460683 -501.202673 
L 304.953979 -500.527302 
L 310.447276 -499.880632 
L 315.940573 -499.269472 
L 321.433869 -498.700747 
L 326.927166 -498.181685 
L 332.420462 -497.719796 
L 337.913759 -497.322665 
L 343.407056 -496.997631 
L 348.900352 -496.751396 
L 354.393649 -496.589671 
L 359.886945 -496.516858 
L 365.380242 -496.535825 
L 370.873539 -496.647762 
L 376.366835 -496.852113 
L 381.860132 -497.146572 
L 387.353428 -497.527128 
L 392.846725 -497.988157 
L 398.340022 -498.522535 
L 403.833318 -499.121784 
L 409.326615 -499.776233 
L 414.819911 -500.475194 
L 420.313208 -501.207159 
L 425.806505 -501.959995 
L 431.299801 -502.721158 
L 436.793098 -503.4779 
L 442.286394 -504.217484 
L 447.779691 -504.927389 
L 453.272988 -505.595517 
L 458.766284 -506.210386 
L 464.259581 -506.761318 
L 469.752877 -507.238613 
L 475.246174 -507.633719 
L 480.739471 -507.939395 
L 486.232767 -508.149868 
L 491.726064 -508.260992 
L 497.219361 -508.270396 
L 502.712657 -508.177636 
L 508.205954 -507.984327 
L 513.69925 -507.694234 
L 519.192547 -507.313312 
L 524.685844 -506.849639 
L 530.17914 -506.313215 
L 535.672437 -505.71561 
L 541.165733 -505.069456 
L 546.65903 -504.387817 
L 552.152327 -503.683534 
L 557.645623 -502.968639 
L 563.13892 -502.253953 
L 568.632216 -501.54894 
L 574.125513 -500.861829 
L 579.61881 -500.199953 
L 585.112106 -499.570187 
L 590.605403 -498.979361 
L 596.098699 -498.434544 
L 601.591996 -497.943118 
L 607.085293 -497.512667 
L 612.578589 -497.150698 
L 618.071886 -496.864279 
L 623.565182 -496.659661 
L 629.058479 -496.541933 
L 634.551776 -496.514754 
L 634.551776 -491.908854 
L 634.551776 -491.908854 
L 629.058479 -491.908854 
L 623.565182 -491.908854 
L 618.071886 -491.908854 
L 612.578589 -491.908854 
L 607.085293 -491.908854 
L 601.591996 -491.908854 
L 596.098699 -491.908854 
L 590.605403 -491.908854 
L 585.112106 -491.908854 
L 579.61881 -491.908854 
L 574.125513 -491.908854 
L 568.632216 -491.908854 
L 563.13892 -491.908854 
L 557.645623 -491.908854 
L 552.152327 -491.908854 
L 546.65903 -491.908854 
L 541.165733 -491.908854 
L 535.672437 -491.908854 
L 530.17914 -491.908854 
L 524.685844 -491.908854 
L 519.192547 -491.908854 
L 513.69925 -491.908854 
L 508.205954 -491.908854 
L 502.712657 -491.908854 
L 497.219361 -491.908854 
L 491.726064 -491.908854 
L 486.232767 -491.908854 
L 480.739471 -491.908854 
L 475.246174 -491.908854 
L 469.752877 -491.908854 
L 464.259581 -491.908854 
L 458.766284 -491.908854 
L 453.272988 -491.908854 
L 447.779691 -491.908854 
L 442.286394 -491.908854 
L 436.793098 -491.908854 
L 431.299801 -491.908854 
L 425.806505 -491.908854 
L 420.313208 -491.908854 
L 414.819911 -491.908854 
L 409.326615 -491.908854 
L 403.833318 -491.908854 
L 398.340022 -491.908854 
L 392.846725 -491.908854 
L 387.353428 -491.908854 
L 381.860132 -491.908854 
L 376.366835 -491.908854 
L 370.873539 -491.908854 
L 365.380242 -491.908854 
L 359.886945 -491.908854 
L 354.393649 -491.908854 
L 348.900352 -491.908854 
L 343.407056 -491.908854 
L 337.913759 -491.908854 
L 332.420462 -491.908854 
L 326.927166 -491.908854 
L 321.433869 -491.908854 
L 315.940573 -491.908854 
L 310.447276 -491.908854 
L 304.953979 -491.908854 
L 299.460683 -491.908854 
L 293.967386 -491.908854 
L 288.47409 -491.908854 
L 282.980793 -491.908854 
L 277.487496 -491.908854 
L 271.9942 -491.908854 
L 266.500903 -491.908854 
L 261.007607 -491.908854 
L 255.51431 -491.908854 
L 250.021013 -491.908854 
L 244.527717 -491.908854 
L 239.03442 -491.908854 
L 233.541124 -491.908854 
L 228.047827 -491.908854 
L 222.55453 -491.908854 
L 217.061234 -491.908854 
L 211.567937 -491.908854 
L 206.074641 -491.908854 
L 200.581344 -491.908854 
L 195.088047 -491.908854 
L 189.594751 -491.908854 
L 184.101454 -491.908854 
L 178.608158 -491.908854 
L 173.114861 -491.908854 
L 167.621564 -491.908854 
L 162.128268 -491.908854 
L 156.634971 -491.908854 
L 151.141675 -491.908854 
L 145.648378 -491.908854 
L 140.155081 -491.908854 
L 134.661785 -491.908854 
L 129.168488 -491.908854 
L 123.675192 -491.908854 
L 118.181895 -491.908854 
L 112.688598 -491.908854 
L 107.195302 -491.908854 
L 101.702005 -491.908854 
L 96.208709 -491.908854 
L 90.715412 -491.908854 
z
" style="stroke: #ffa500; stroke-opacity: 0.2"/>
    </defs>
    <g clip-path="url(#p67fe80eb38)">
     <use xlink:href="#m81257af634" x="0" y="710.433437" style="fill: #ffa500; fill-opacity: 0.2; stroke: #ffa500; stroke-opacity: 0.2"/>
    </g>
   </g>
   <g id="matplotlib.axis_7">
    <g id="ytick_27">
     <g id="line2d_81">
      <defs>
       <path id="m9f2ce84daa" d="M 0 0 
L 3.5 0 
" style="stroke: #000000; stroke-width: 0.8"/>
      </defs>
      <g>
       <use xlink:href="#m9f2ce84daa" x="661.743594" y="218.524583" style="stroke: #000000; stroke-width: 0.8"/>
      </g>
     </g>
     <g id="text_27">
      <!-- 0.0 -->
      <g style="fill: #ffa500" transform="translate(668.743594 222.703724) scale(0.11 -0.11)">
       <use xlink:href="#DejaVuSerif-30"/>
       <use xlink:href="#DejaVuSerif-2e" transform="translate(63.623047 0)"/>
       <use xlink:href="#DejaVuSerif-30" transform="translate(95.410156 0)"/>
      </g>
     </g>
    </g>
    <g id="ytick_28">
     <g id="line2d_82">
      <g>
       <use xlink:href="#m9f2ce84daa" x="661.743594" y="180.267667" style="stroke: #000000; stroke-width: 0.8"/>
      </g>
     </g>
     <g id="text_28">
      <!-- 0.1 -->
      <g style="fill: #ffa500" transform="translate(668.743594 184.446807) scale(0.11 -0.11)">
       <use xlink:href="#DejaVuSerif-30"/>
       <use xlink:href="#DejaVuSerif-2e" transform="translate(63.623047 0)"/>
       <use xlink:href="#DejaVuSerif-31" transform="translate(95.410156 0)"/>
      </g>
     </g>
    </g>
    <g id="ytick_29">
     <g id="line2d_83">
      <g>
       <use xlink:href="#m9f2ce84daa" x="661.743594" y="142.01075" style="stroke: #000000; stroke-width: 0.8"/>
      </g>
     </g>
     <g id="text_29">
      <!-- 0.2 -->
      <g style="fill: #ffa500" transform="translate(668.743594 146.189891) scale(0.11 -0.11)">
       <use xlink:href="#DejaVuSerif-30"/>
       <use xlink:href="#DejaVuSerif-2e" transform="translate(63.623047 0)"/>
       <use xlink:href="#DejaVuSerif-32" transform="translate(95.410156 0)"/>
      </g>
     </g>
    </g>
    <g id="ytick_30">
     <g id="line2d_84">
      <g>
       <use xlink:href="#m9f2ce84daa" x="661.743594" y="103.753833" style="stroke: #000000; stroke-width: 0.8"/>
      </g>
     </g>
     <g id="text_30">
      <!-- 0.3 -->
      <g style="fill: #ffa500" transform="translate(668.743594 107.932974) scale(0.11 -0.11)">
       <use xlink:href="#DejaVuSerif-30"/>
       <use xlink:href="#DejaVuSerif-2e" transform="translate(63.623047 0)"/>
       <use xlink:href="#DejaVuSerif-33" transform="translate(95.410156 0)"/>
      </g>
     </g>
    </g>
    <g id="ytick_31">
     <g id="line2d_85">
      <g>
       <use xlink:href="#m9f2ce84daa" x="661.743594" y="65.496917" style="stroke: #000000; stroke-width: 0.8"/>
      </g>
     </g>
     <g id="text_31">
      <!-- 0.4 -->
      <g style="fill: #ffa500" transform="translate(668.743594 69.676057) scale(0.11 -0.11)">
       <use xlink:href="#DejaVuSerif-30"/>
       <use xlink:href="#DejaVuSerif-2e" transform="translate(63.623047 0)"/>
       <use xlink:href="#DejaVuSerif-34" transform="translate(95.410156 0)"/>
      </g>
     </g>
    </g>
    <g id="ytick_32">
     <g id="line2d_86">
      <g>
       <use xlink:href="#m9f2ce84daa" x="661.743594" y="27.24" style="stroke: #000000; stroke-width: 0.8"/>
      </g>
     </g>
     <g id="text_32">
      <!-- 0.5 -->
      <g style="fill: #ffa500" transform="translate(668.743594 31.419141) scale(0.11 -0.11)">
       <defs>
        <path id="DejaVuSerif-35" d="M 3219 4666 
L 3219 4153 
L 1081 4153 
L 1081 2816 
Q 1244 2928 1461 2984 
Q 1678 3041 1947 3041 
Q 2703 3041 3140 2622 
Q 3578 2203 3578 1478 
Q 3578 738 3136 323 
Q 2694 -91 1894 -91 
Q 1572 -91 1234 -12 
Q 897 66 544 225 
L 544 1131 
L 897 1131 
Q 925 688 1179 453 
Q 1434 219 1894 219 
Q 2388 219 2653 544 
Q 2919 869 2919 1478 
Q 2919 2084 2655 2407 
Q 2391 2731 1894 2731 
Q 1613 2731 1398 2631 
Q 1184 2531 1019 2322 
L 750 2322 
L 750 4666 
L 3219 4666 
z
" transform="scale(0.015625)"/>
       </defs>
       <use xlink:href="#DejaVuSerif-30"/>
       <use xlink:href="#DejaVuSerif-2e" transform="translate(63.623047 0)"/>
       <use xlink:href="#DejaVuSerif-35" transform="translate(95.410156 0)"/>
      </g>
     </g>
    </g>
    <g id="text_33">
     <!-- $|\chi - \mathrm{round}(\chi)|$ -->
     <g style="fill: #ffa500" transform="translate(699.477031 163.682292) rotate(-90) scale(0.12 -0.12)">
      <defs>
       <path id="DejaVuSans-2212" d="M 678 2272 
L 4684 2272 
L 4684 1741 
L 678 1741 
L 678 2272 
z
" transform="scale(0.015625)"/>
       <path id="DejaVuSans-72" d="M 2631 2963 
Q 2534 3019 2420 3045 
Q 2306 3072 2169 3072 
Q 1681 3072 1420 2755 
Q 1159 2438 1159 1844 
L 1159 0 
L 581 0 
L 581 3500 
L 1159 3500 
L 1159 2956 
Q 1341 3275 1631 3429 
Q 1922 3584 2338 3584 
Q 2397 3584 2469 3576 
Q 2541 3569 2628 3553 
L 2631 2963 
z
" transform="scale(0.015625)"/>
       <path id="DejaVuSans-6f" d="M 1959 3097 
Q 1497 3097 1228 2736 
Q 959 2375 959 1747 
Q 959 1119 1226 758 
Q 1494 397 1959 397 
Q 2419 397 2687 759 
Q 2956 1122 2956 1747 
Q 2956 2369 2687 2733 
Q 2419 3097 1959 3097 
z
M 1959 3584 
Q 2709 3584 3137 3096 
Q 3566 2609 3566 1747 
Q 3566 888 3137 398 
Q 2709 -91 1959 -91 
Q 1206 -91 779 398 
Q 353 888 353 1747 
Q 353 2609 779 3096 
Q 1206 3584 1959 3584 
z
" transform="scale(0.015625)"/>
       <path id="DejaVuSans-75" d="M 544 1381 
L 544 3500 
L 1119 3500 
L 1119 1403 
Q 1119 906 1312 657 
Q 1506 409 1894 409 
Q 2359 409 2629 706 
Q 2900 1003 2900 1516 
L 2900 3500 
L 3475 3500 
L 3475 0 
L 2900 0 
L 2900 538 
Q 2691 219 2414 64 
Q 2138 -91 1772 -91 
Q 1169 -91 856 284 
Q 544 659 544 1381 
z
M 1991 3584 
L 1991 3584 
z
" transform="scale(0.015625)"/>
       <path id="DejaVuSans-64" d="M 2906 2969 
L 2906 4863 
L 3481 4863 
L 3481 0 
L 2906 0 
L 2906 525 
Q 2725 213 2448 61 
Q 2172 -91 1784 -91 
Q 1150 -91 751 415 
Q 353 922 353 1747 
Q 353 2572 751 3078 
Q 1150 3584 1784 3584 
Q 2172 3584 2448 3432 
Q 2725 3281 2906 2969 
z
M 947 1747 
Q 947 1113 1208 752 
Q 1469 391 1925 391 
Q 2381 391 2643 752 
Q 2906 1113 2906 1747 
Q 2906 2381 2643 2742 
Q 2381 3103 1925 3103 
Q 1469 3103 1208 2742 
Q 947 2381 947 1747 
z
" transform="scale(0.015625)"/>
       <path id="DejaVuSans-28" d="M 1984 4856 
Q 1566 4138 1362 3434 
Q 1159 2731 1159 2009 
Q 1159 1288 1364 580 
Q 1569 -128 1984 -844 
L 1484 -844 
Q 1016 -109 783 600 
Q 550 1309 550 2009 
Q 550 2706 781 3412 
Q 1013 4119 1484 4856 
L 1984 4856 
z
" transform="scale(0.015625)"/>
       <path id="DejaVuSans-29" d="M 513 4856 
L 1013 4856 
Q 1481 4119 1714 3412 
Q 1947 2706 1947 2009 
Q 1947 1309 1714 600 
Q 1481 -109 1013 -844 
L 513 -844 
Q 928 -128 1133 580 
Q 1338 1288 1338 2009 
Q 1338 2731 1133 3434 
Q 928 4138 513 4856 
z
" transform="scale(0.015625)"/>
      </defs>
      <use xlink:href="#DejaVuSans-7c" transform="translate(0 0.578125)"/>
      <use xlink:href="#DejaVuSans-Oblique-3c7" transform="translate(33.691406 0.578125)"/>
      <use xlink:href="#DejaVuSans-2212" transform="translate(112.353516 0.578125)"/>
      <use xlink:href="#DejaVuSans-72" transform="translate(215.625 0.578125)"/>
      <use xlink:href="#DejaVuSans-6f" transform="translate(256.738281 0.578125)"/>
      <use xlink:href="#DejaVuSans-75" transform="translate(317.919922 0.578125)"/>
      <use xlink:href="#DejaVuSans-6e" transform="translate(381.298828 0.578125)"/>
      <use xlink:href="#DejaVuSans-64" transform="translate(444.677734 0.578125)"/>
      <use xlink:href="#DejaVuSans-28" transform="translate(508.154297 0.578125)"/>
      <use xlink:href="#DejaVuSans-Oblique-3c7" transform="translate(547.167969 0.578125)"/>
      <use xlink:href="#DejaVuSans-29" transform="translate(606.347656 0.578125)"/>
      <use xlink:href="#DejaVuSans-7c" transform="translate(645.361328 0.578125)"/>
     </g>
    </g>
   </g>
   <g id="patch_18">
    <path d="M 63.523594 218.524583 
L 63.523594 27.24 
" style="fill: none; stroke: #000000; stroke-width: 0.8; stroke-linejoin: miter; stroke-linecap: square"/>
   </g>
   <g id="patch_19">
    <path d="M 661.743594 218.524583 
L 661.743594 27.24 
" style="fill: none; stroke: #000000; stroke-width: 0.8; stroke-linejoin: miter; stroke-linecap: square"/>
   </g>
   <g id="patch_20">
    <path d="M 63.523594 218.524583 
L 661.743594 218.524583 
" style="fill: none; stroke: #000000; stroke-width: 0.8; stroke-linejoin: miter; stroke-linecap: square"/>
   </g>
   <g id="patch_21">
    <path d="M 63.523594 27.24 
L 661.743594 27.24 
" style="fill: none; stroke: #000000; stroke-width: 0.8; stroke-linejoin: miter; stroke-linecap: square"/>
   </g>
  </g>
 </g>
 <defs>
  <clipPath id="p67fe80eb38">
   <rect x="63.523594" y="27.24" width="598.22" height="191.284583"/>
  </clipPath>
  <clipPath id="pcd6a0bd5e7">
   <rect x="63.523594" y="252.964583" width="598.22" height="191.284583"/>
  </clipPath>
  <clipPath id="p4ef178868e">
   <rect x="63.523594" y="478.689167" width="598.22" height="191.284583"/>
  </clipPath>
 </defs>
</svg>
