<?xml version="1.0" encoding="utf-8" standalone="no"?>
<!DOCTYPE svg PUBLIC "-//W3C//DTD SVG 1.1//EN"
  "http://www.w3.org/Graphics/SVG/1.1/DTD/svg11.dtd">
<svg xmlns:xlink="http://www.w3.org/1999/xlink" width="709.231187pt" height="423.268281pt" viewBox="0 0 709.231187 423.268281" xmlns="http://www.w3.org/2000/svg" version="1.1">
 <metadata>
  <rdf:RDF xmlns:dc="http://purl.org/dc/elements/1.1/" xmlns:cc="http://creativecommons.org/ns#" xmlns:rdf="http://www.w3.org/1999/02/22-rdf-syntax-ns#">
   <cc:Work>
    <dc:type rdf:resource="http://purl.org/dc/dcmitype/StillImage"/>
    <dc:date>2026-02-26T17:38:52.313725</dc:date>
    <dc:format>image/svg+xml</dc:format>
    <dc:creator>
     <cc:Agent>
      <dc:title>Matplotlib v3.10.8, https://matplotlib.org/</dc:title>
     </cc:Agent>
    </dc:creator>
   </cc:Work>
  </rdf:RDF>
 </metadata>
 <defs>
  <style type="text/css">*{stroke-linejoin: round; stroke-linecap: butt}</style>
 </defs>
 <g id="figure_1">
  <g id="patch_1">
   <path d="M -0 423.268281 
L 709.231187 423.268281 
L 709.231187 0 
L -0 0 
z
" style="fill: #ffffff"/>
  </g>
  <g id="axes_1">
   <g id="patch_2">
    <path d="M 47.307188 382.637969 
L 702.031187 382.637969 
L 702.031187 23.077969 
L 47.307188 23.077969 
z
" style="fill: #ffffff"/>
   </g>
   <g id="matplotlib.axis_1">
    <g id="xtick_1">
     <g id="line2d_1">
      <path d="M 77.067369 382.637969 
L 77.067369 23.077969 
" clip-path="url(#pafd7f31cf7)" style="fill: none; stroke: #b0b0b0; stroke-opacity: 0.3; stroke-width: 0.8; stroke-linecap: square"/>
     </g>
     <g id="line2d_2">
      <defs>
       <path id="m7601662feb" d="M 0 0 
L 0 3.5 
" style="stroke: #000000; stroke-width: 0.8"/>
      </defs>
      <g>
       <use xlink:href="#m7601662feb" x="77.067369" y="382.637969" style="stroke: #000000; stroke-width: 0.8"/>
      </g>
     </g>
     <g id="text_1">
      <!-- 0 -->
      <g transform="translate(73.567994 397.99625) scale(0.11 -0.11)">
       <defs>
        <path id="DejaVuSerif-30" d="M 2034 219 
Q 2513 219 2750 744 
Q 2988 1269 2988 2328 
Q 2988 3391 2750 3916 
Q 2513 4441 2034 4441 
Q 1556 4441 1318 3916 
Q 1081 3391 1081 2328 
Q 1081 1269 1318 744 
Q 1556 219 2034 219 
z
M 2034 -91 
Q 1275 -91 848 546 
Q 422 1184 422 2328 
Q 422 3475 848 4112 
Q 1275 4750 2034 4750 
Q 2797 4750 3222 4112 
Q 3647 3475 3647 2328 
Q 3647 1184 3222 546 
Q 2797 -91 2034 -91 
z
" transform="scale(0.015625)"/>
       </defs>
       <use xlink:href="#DejaVuSerif-30"/>
      </g>
     </g>
    </g>
    <g id="xtick_2">
     <g id="line2d_3">
      <path d="M 197.310528 382.637969 
L 197.310528 23.077969 
" clip-path="url(#pafd7f31cf7)" style="fill: none; stroke: #b0b0b0; stroke-opacity: 0.3; stroke-width: 0.8; stroke-linecap: square"/>
     </g>
     <g id="line2d_4">
      <g>
       <use xlink:href="#m7601662feb" x="197.310528" y="382.637969" style="stroke: #000000; stroke-width: 0.8"/>
      </g>
     </g>
     <g id="text_2">
      <!-- 20 -->
      <g transform="translate(190.311778 397.99625) scale(0.11 -0.11)">
       <defs>
        <path id="DejaVuSerif-32" d="M 819 3553 
L 469 3553 
L 469 4384 
Q 803 4563 1142 4656 
Q 1481 4750 1806 4750 
Q 2534 4750 2956 4397 
Q 3378 4044 3378 3438 
Q 3378 2753 2422 1800 
Q 2347 1728 2309 1691 
L 1131 513 
L 3078 513 
L 3078 1088 
L 3444 1088 
L 3444 0 
L 434 0 
L 434 341 
L 1850 1753 
Q 2319 2222 2519 2614 
Q 2719 3006 2719 3438 
Q 2719 3909 2473 4175 
Q 2228 4441 1797 4441 
Q 1350 4441 1106 4219 
Q 863 3997 819 3553 
z
" transform="scale(0.015625)"/>
       </defs>
       <use xlink:href="#DejaVuSerif-32"/>
       <use xlink:href="#DejaVuSerif-30" transform="translate(63.623047 0)"/>
      </g>
     </g>
    </g>
    <g id="xtick_3">
     <g id="line2d_5">
      <path d="M 317.553687 382.637969 
L 317.553687 23.077969 
" clip-path="url(#pafd7f31cf7)" style="fill: none; stroke: #b0b0b0; stroke-opacity: 0.3; stroke-width: 0.8; stroke-linecap: square"/>
     </g>
     <g id="line2d_6">
      <g>
       <use xlink:href="#m7601662feb" x="317.553687" y="382.637969" style="stroke: #000000; stroke-width: 0.8"/>
      </g>
     </g>
     <g id="text_3">
      <!-- 40 -->
      <g transform="translate(310.554937 397.99625) scale(0.11 -0.11)">
       <defs>
        <path id="DejaVuSerif-34" d="M 2234 1581 
L 2234 4063 
L 641 1581 
L 2234 1581 
z
M 3609 0 
L 1484 0 
L 1484 331 
L 2234 331 
L 2234 1247 
L 197 1247 
L 197 1588 
L 2241 4750 
L 2859 4750 
L 2859 1581 
L 3750 1581 
L 3750 1247 
L 2859 1247 
L 2859 331 
L 3609 331 
L 3609 0 
z
" transform="scale(0.015625)"/>
       </defs>
       <use xlink:href="#DejaVuSerif-34"/>
       <use xlink:href="#DejaVuSerif-30" transform="translate(63.623047 0)"/>
      </g>
     </g>
    </g>
    <g id="xtick_4">
     <g id="line2d_7">
      <path d="M 437.796846 382.637969 
L 437.796846 23.077969 
" clip-path="url(#pafd7f31cf7)" style="fill: none; stroke: #b0b0b0; stroke-opacity: 0.3; stroke-width: 0.8; stroke-linecap: square"/>
     </g>
     <g id="line2d_8">
      <g>
       <use xlink:href="#m7601662feb" x="437.796846" y="382.637969" style="stroke: #000000; stroke-width: 0.8"/>
      </g>
     </g>
     <g id="text_4">
      <!-- 60 -->
      <g transform="translate(430.798096 397.99625) scale(0.11 -0.11)">
       <defs>
        <path id="DejaVuSerif-36" d="M 2094 219 
Q 2534 219 2771 542 
Q 3009 866 3009 1472 
Q 3009 2078 2771 2401 
Q 2534 2725 2094 2725 
Q 1647 2725 1412 2412 
Q 1178 2100 1178 1509 
Q 1178 888 1415 553 
Q 1653 219 2094 219 
z
M 1075 2569 
Q 1288 2803 1556 2918 
Q 1825 3034 2163 3034 
Q 2859 3034 3264 2615 
Q 3669 2197 3669 1472 
Q 3669 763 3233 336 
Q 2797 -91 2069 -91 
Q 1278 -91 853 498 
Q 428 1088 428 2181 
Q 428 3406 931 4078 
Q 1434 4750 2350 4750 
Q 2597 4750 2869 4703 
Q 3141 4656 3425 4563 
L 3425 3794 
L 3072 3794 
Q 3034 4109 2831 4275 
Q 2628 4441 2284 4441 
Q 1678 4441 1381 3981 
Q 1084 3522 1075 2569 
z
" transform="scale(0.015625)"/>
       </defs>
       <use xlink:href="#DejaVuSerif-36"/>
       <use xlink:href="#DejaVuSerif-30" transform="translate(63.623047 0)"/>
      </g>
     </g>
    </g>
    <g id="xtick_5">
     <g id="line2d_9">
      <path d="M 558.040005 382.637969 
L 558.040005 23.077969 
" clip-path="url(#pafd7f31cf7)" style="fill: none; stroke: #b0b0b0; stroke-opacity: 0.3; stroke-width: 0.8; stroke-linecap: square"/>
     </g>
     <g id="line2d_10">
      <g>
       <use xlink:href="#m7601662feb" x="558.040005" y="382.637969" style="stroke: #000000; stroke-width: 0.8"/>
      </g>
     </g>
     <g id="text_5">
      <!-- 80 -->
      <g transform="translate(551.041255 397.99625) scale(0.11 -0.11)">
       <defs>
        <path id="DejaVuSerif-38" d="M 2981 1275 
Q 2981 1775 2732 2051 
Q 2484 2328 2034 2328 
Q 1584 2328 1336 2051 
Q 1088 1775 1088 1275 
Q 1088 772 1336 495 
Q 1584 219 2034 219 
Q 2484 219 2732 495 
Q 2981 772 2981 1275 
z
M 2853 3541 
Q 2853 3966 2637 4203 
Q 2422 4441 2034 4441 
Q 1650 4441 1433 4203 
Q 1216 3966 1216 3541 
Q 1216 3113 1433 2875 
Q 1650 2638 2034 2638 
Q 2422 2638 2637 2875 
Q 2853 3113 2853 3541 
z
M 2516 2484 
Q 3047 2413 3344 2092 
Q 3641 1772 3641 1275 
Q 3641 619 3225 264 
Q 2809 -91 2034 -91 
Q 1263 -91 845 264 
Q 428 619 428 1275 
Q 428 1772 725 2092 
Q 1022 2413 1556 2484 
Q 1084 2569 832 2842 
Q 581 3116 581 3541 
Q 581 4103 968 4426 
Q 1356 4750 2034 4750 
Q 2713 4750 3100 4426 
Q 3488 4103 3488 3541 
Q 3488 3116 3236 2842 
Q 2984 2569 2516 2484 
z
" transform="scale(0.015625)"/>
       </defs>
       <use xlink:href="#DejaVuSerif-38"/>
       <use xlink:href="#DejaVuSerif-30" transform="translate(63.623047 0)"/>
      </g>
     </g>
    </g>
    <g id="xtick_6">
     <g id="line2d_11">
      <path d="M 678.283164 382.637969 
L 678.283164 23.077969 
" clip-path="url(#pafd7f31cf7)" style="fill: none; stroke: #b0b0b0; stroke-opacity: 0.3; stroke-width: 0.8; stroke-linecap: square"/>
     </g>
     <g id="line2d_12">
      <g>
       <use xlink:href="#m7601662feb" x="678.283164" y="382.637969" style="stroke: #000000; stroke-width: 0.8"/>
      </g>
     </g>
     <g id="text_6">
      <!-- 100 -->
      <g transform="translate(667.785039 397.99625) scale(0.11 -0.11)">
       <defs>
        <path id="DejaVuSerif-31" d="M 909 0 
L 909 331 
L 1722 331 
L 1722 4213 
L 781 3603 
L 781 4013 
L 1919 4750 
L 2350 4750 
L 2350 331 
L 3163 331 
L 3163 0 
L 909 0 
z
" transform="scale(0.015625)"/>
       </defs>
       <use xlink:href="#DejaVuSerif-31"/>
       <use xlink:href="#DejaVuSerif-30" transform="translate(63.623047 0)"/>
       <use xlink:href="#DejaVuSerif-30" transform="translate(127.246094 0)"/>
      </g>
     </g>
    </g>
    <g id="text_7">
     <!-- Normalized cumulative spacing -->
     <g transform="translate(278.438562 413.402031) scale(0.12 -0.12)">
      <defs>
       <path id="DejaVuSerif-4e" d="M 313 0 
L 313 331 
L 941 331 
L 941 4331 
L 313 4331 
L 313 4666 
L 1509 4666 
L 4306 984 
L 4306 4331 
L 3681 4331 
L 3681 4666 
L 5319 4666 
L 5319 4331 
L 4691 4331 
L 4691 -91 
L 4313 -91 
L 1325 3841 
L 1325 331 
L 1953 331 
L 1953 0 
L 313 0 
z
" transform="scale(0.015625)"/>
       <path id="DejaVuSerif-6f" d="M 1925 219 
Q 2388 219 2623 584 
Q 2859 950 2859 1663 
Q 2859 2375 2623 2739 
Q 2388 3103 1925 3103 
Q 1463 3103 1227 2739 
Q 991 2375 991 1663 
Q 991 950 1228 584 
Q 1466 219 1925 219 
z
M 1925 -91 
Q 1200 -91 759 389 
Q 319 869 319 1663 
Q 319 2456 758 2934 
Q 1197 3413 1925 3413 
Q 2653 3413 3092 2934 
Q 3531 2456 3531 1663 
Q 3531 869 3092 389 
Q 2653 -91 1925 -91 
z
" transform="scale(0.015625)"/>
       <path id="DejaVuSerif-72" d="M 3059 3328 
L 3059 2497 
L 2728 2497 
Q 2713 2744 2591 2866 
Q 2469 2988 2234 2988 
Q 1809 2988 1582 2694 
Q 1356 2400 1356 1850 
L 1356 331 
L 2022 331 
L 2022 0 
L 263 0 
L 263 331 
L 781 331 
L 781 2994 
L 231 2994 
L 231 3322 
L 1356 3322 
L 1356 2731 
Q 1525 3078 1790 3245 
Q 2056 3413 2438 3413 
Q 2578 3413 2733 3391 
Q 2888 3369 3059 3328 
z
" transform="scale(0.015625)"/>
       <path id="DejaVuSerif-6d" d="M 3316 2675 
Q 3481 3041 3739 3227 
Q 3997 3413 4341 3413 
Q 4863 3413 5119 3089 
Q 5375 2766 5375 2113 
L 5375 331 
L 5894 331 
L 5894 0 
L 4300 0 
L 4300 331 
L 4800 331 
L 4800 2047 
Q 4800 2556 4650 2772 
Q 4500 2988 4153 2988 
Q 3769 2988 3567 2697 
Q 3366 2406 3366 1850 
L 3366 331 
L 3866 331 
L 3866 0 
L 2291 0 
L 2291 331 
L 2791 331 
L 2791 2069 
Q 2791 2566 2641 2777 
Q 2491 2988 2144 2988 
Q 1759 2988 1557 2697 
Q 1356 2406 1356 1850 
L 1356 331 
L 1856 331 
L 1856 0 
L 263 0 
L 263 331 
L 781 331 
L 781 2994 
L 231 2994 
L 231 3322 
L 1356 3322 
L 1356 2731 
Q 1516 3063 1762 3238 
Q 2009 3413 2322 3413 
Q 2709 3413 2968 3220 
Q 3228 3028 3316 2675 
z
" transform="scale(0.015625)"/>
       <path id="DejaVuSerif-61" d="M 2547 1044 
L 2547 1747 
L 1806 1747 
Q 1378 1747 1168 1562 
Q 959 1378 959 997 
Q 959 650 1171 447 
Q 1384 244 1747 244 
Q 2106 244 2326 466 
Q 2547 688 2547 1044 
z
M 3122 2075 
L 3122 331 
L 3634 331 
L 3634 0 
L 2547 0 
L 2547 359 
Q 2356 128 2106 18 
Q 1856 -91 1522 -91 
Q 969 -91 644 203 
Q 319 497 319 997 
Q 319 1513 691 1797 
Q 1063 2081 1741 2081 
L 2547 2081 
L 2547 2309 
Q 2547 2688 2317 2895 
Q 2088 3103 1672 3103 
Q 1328 3103 1125 2947 
Q 922 2791 872 2484 
L 575 2484 
L 575 3156 
Q 875 3284 1158 3348 
Q 1441 3413 1709 3413 
Q 2400 3413 2761 3070 
Q 3122 2728 3122 2075 
z
" transform="scale(0.015625)"/>
       <path id="DejaVuSerif-6c" d="M 1313 331 
L 1856 331 
L 1856 0 
L 184 0 
L 184 331 
L 738 331 
L 738 4531 
L 184 4531 
L 184 4863 
L 1313 4863 
L 1313 331 
z
" transform="scale(0.015625)"/>
       <path id="DejaVuSerif-69" d="M 622 4353 
Q 622 4497 726 4603 
Q 831 4709 978 4709 
Q 1122 4709 1226 4603 
Q 1331 4497 1331 4353 
Q 1331 4206 1228 4103 
Q 1125 4000 978 4000 
Q 831 4000 726 4103 
Q 622 4206 622 4353 
z
M 1356 331 
L 1900 331 
L 1900 0 
L 231 0 
L 231 331 
L 781 331 
L 781 2988 
L 231 2988 
L 231 3322 
L 1356 3322 
L 1356 331 
z
" transform="scale(0.015625)"/>
       <path id="DejaVuSerif-7a" d="M 256 0 
L 256 269 
L 2338 2988 
L 691 2988 
L 691 2413 
L 359 2413 
L 359 3322 
L 3078 3322 
L 3078 3053 
L 997 331 
L 2803 331 
L 2803 934 
L 3138 934 
L 3138 0 
L 256 0 
z
" transform="scale(0.015625)"/>
       <path id="DejaVuSerif-65" d="M 3469 1600 
L 991 1600 
L 991 1575 
Q 991 903 1244 561 
Q 1497 219 1991 219 
Q 2369 219 2611 417 
Q 2853 616 2950 1006 
L 3413 1006 
Q 3275 459 2904 184 
Q 2534 -91 1931 -91 
Q 1203 -91 761 389 
Q 319 869 319 1663 
Q 319 2450 753 2931 
Q 1188 3413 1894 3413 
Q 2647 3413 3050 2948 
Q 3453 2484 3469 1600 
z
M 2791 1931 
Q 2772 2513 2545 2808 
Q 2319 3103 1894 3103 
Q 1497 3103 1269 2806 
Q 1041 2509 991 1931 
L 2791 1931 
z
" transform="scale(0.015625)"/>
       <path id="DejaVuSerif-64" d="M 3359 331 
L 3909 331 
L 3909 0 
L 2784 0 
L 2784 519 
Q 2616 206 2355 57 
Q 2094 -91 1709 -91 
Q 1097 -91 708 395 
Q 319 881 319 1663 
Q 319 2444 706 2928 
Q 1094 3413 1709 3413 
Q 2094 3413 2355 3264 
Q 2616 3116 2784 2803 
L 2784 4531 
L 2241 4531 
L 2241 4863 
L 3359 4863 
L 3359 331 
z
M 2784 1497 
L 2784 1825 
Q 2784 2422 2554 2737 
Q 2325 3053 1888 3053 
Q 1444 3053 1217 2703 
Q 991 2353 991 1663 
Q 991 975 1217 622 
Q 1444 269 1888 269 
Q 2325 269 2554 583 
Q 2784 897 2784 1497 
z
" transform="scale(0.015625)"/>
       <path id="DejaVuSerif-20" transform="scale(0.015625)"/>
       <path id="DejaVuSerif-63" d="M 3291 997 
Q 3169 466 2822 187 
Q 2475 -91 1925 -91 
Q 1200 -91 759 389 
Q 319 869 319 1663 
Q 319 2459 759 2936 
Q 1200 3413 1925 3413 
Q 2241 3413 2553 3339 
Q 2866 3266 3181 3116 
L 3181 2266 
L 2847 2266 
Q 2781 2703 2561 2903 
Q 2341 3103 1931 3103 
Q 1466 3103 1228 2742 
Q 991 2381 991 1663 
Q 991 944 1227 581 
Q 1463 219 1931 219 
Q 2303 219 2525 412 
Q 2747 606 2828 997 
L 3291 997 
z
" transform="scale(0.015625)"/>
       <path id="DejaVuSerif-75" d="M 2266 3322 
L 3341 3322 
L 3341 331 
L 3884 331 
L 3884 0 
L 2766 0 
L 2766 588 
Q 2606 256 2353 82 
Q 2100 -91 1766 -91 
Q 1213 -91 952 223 
Q 691 538 691 1209 
L 691 2988 
L 172 2988 
L 172 3322 
L 1269 3322 
L 1269 1388 
Q 1269 781 1417 556 
Q 1566 331 1947 331 
Q 2347 331 2556 625 
Q 2766 919 2766 1478 
L 2766 2988 
L 2266 2988 
L 2266 3322 
z
" transform="scale(0.015625)"/>
       <path id="DejaVuSerif-74" d="M 691 2988 
L 184 2988 
L 184 3322 
L 691 3322 
L 691 4353 
L 1269 4353 
L 1269 3322 
L 2350 3322 
L 2350 2988 
L 1269 2988 
L 1269 878 
Q 1269 456 1350 337 
Q 1431 219 1650 219 
Q 1875 219 1978 351 
Q 2081 484 2088 781 
L 2522 781 
Q 2497 328 2275 118 
Q 2053 -91 1600 -91 
Q 1103 -91 897 129 
Q 691 350 691 878 
L 691 2988 
z
" transform="scale(0.015625)"/>
       <path id="DejaVuSerif-76" d="M 1581 0 
L 359 2988 
L -19 2988 
L -19 3322 
L 1509 3322 
L 1509 2988 
L 978 2988 
L 1913 703 
L 2847 2988 
L 2350 2988 
L 2350 3322 
L 3597 3322 
L 3597 2988 
L 3225 2988 
L 2003 0 
L 1581 0 
z
" transform="scale(0.015625)"/>
       <path id="DejaVuSerif-73" d="M 359 184 
L 359 959 
L 691 959 
Q 703 588 923 403 
Q 1144 219 1575 219 
Q 1963 219 2166 364 
Q 2369 509 2369 788 
Q 2369 1006 2220 1140 
Q 2072 1275 1594 1428 
L 1178 1569 
Q 750 1706 558 1912 
Q 366 2119 366 2438 
Q 366 2894 700 3153 
Q 1034 3413 1625 3413 
Q 1888 3413 2178 3344 
Q 2469 3275 2778 3144 
L 2778 2419 
L 2447 2419 
Q 2434 2741 2221 2922 
Q 2009 3103 1644 3103 
Q 1281 3103 1095 2975 
Q 909 2847 909 2591 
Q 909 2381 1050 2254 
Q 1191 2128 1613 1997 
L 2069 1856 
Q 2541 1709 2748 1489 
Q 2956 1269 2956 922 
Q 2956 450 2595 179 
Q 2234 -91 1600 -91 
Q 1278 -91 972 -22 
Q 666 47 359 184 
z
" transform="scale(0.015625)"/>
       <path id="DejaVuSerif-70" d="M 1313 1825 
L 1313 1497 
Q 1313 897 1542 583 
Q 1772 269 2209 269 
Q 2650 269 2876 622 
Q 3103 975 3103 1663 
Q 3103 2353 2876 2703 
Q 2650 3053 2209 3053 
Q 1772 3053 1542 2737 
Q 1313 2422 1313 1825 
z
M 738 2988 
L 184 2988 
L 184 3322 
L 1313 3322 
L 1313 2803 
Q 1481 3116 1742 3264 
Q 2003 3413 2388 3413 
Q 3000 3413 3387 2928 
Q 3775 2444 3775 1663 
Q 3775 881 3387 395 
Q 3000 -91 2388 -91 
Q 2003 -91 1742 57 
Q 1481 206 1313 519 
L 1313 -997 
L 1856 -997 
L 1856 -1331 
L 184 -1331 
L 184 -997 
L 738 -997 
L 738 2988 
z
" transform="scale(0.015625)"/>
       <path id="DejaVuSerif-6e" d="M 263 0 
L 263 331 
L 781 331 
L 781 2988 
L 231 2988 
L 231 3322 
L 1356 3322 
L 1356 2731 
Q 1516 3069 1770 3241 
Q 2025 3413 2363 3413 
Q 2913 3413 3172 3097 
Q 3431 2781 3431 2113 
L 3431 331 
L 3944 331 
L 3944 0 
L 2356 0 
L 2356 331 
L 2853 331 
L 2853 1931 
Q 2853 2541 2703 2767 
Q 2553 2994 2175 2994 
Q 1775 2994 1565 2701 
Q 1356 2409 1356 1850 
L 1356 331 
L 1856 331 
L 1856 0 
L 263 0 
z
" transform="scale(0.015625)"/>
       <path id="DejaVuSerif-67" d="M 3359 2988 
L 3359 72 
Q 3359 -644 2965 -1033 
Q 2572 -1422 1844 -1422 
Q 1516 -1422 1216 -1362 
Q 916 -1303 641 -1184 
L 641 -488 
L 941 -488 
Q 997 -813 1206 -963 
Q 1416 -1113 1806 -1113 
Q 2313 -1113 2548 -827 
Q 2784 -541 2784 72 
L 2784 519 
Q 2616 206 2355 57 
Q 2094 -91 1709 -91 
Q 1097 -91 708 395 
Q 319 881 319 1663 
Q 319 2444 706 2928 
Q 1094 3413 1709 3413 
Q 2094 3413 2355 3264 
Q 2616 3116 2784 2803 
L 2784 3322 
L 3909 3322 
L 3909 2988 
L 3359 2988 
z
M 2784 1825 
Q 2784 2422 2554 2737 
Q 2325 3053 1888 3053 
Q 1444 3053 1217 2703 
Q 991 2353 991 1663 
Q 991 975 1217 622 
Q 1444 269 1888 269 
Q 2325 269 2554 583 
Q 2784 897 2784 1497 
L 2784 1825 
z
" transform="scale(0.015625)"/>
      </defs>
      <use xlink:href="#DejaVuSerif-4e"/>
      <use xlink:href="#DejaVuSerif-6f" transform="translate(87.5 0)"/>
      <use xlink:href="#DejaVuSerif-72" transform="translate(147.705078 0)"/>
      <use xlink:href="#DejaVuSerif-6d" transform="translate(195.507812 0)"/>
      <use xlink:href="#DejaVuSerif-61" transform="translate(290.332031 0)"/>
      <use xlink:href="#DejaVuSerif-6c" transform="translate(349.951172 0)"/>
      <use xlink:href="#DejaVuSerif-69" transform="translate(381.933594 0)"/>
      <use xlink:href="#DejaVuSerif-7a" transform="translate(413.916016 0)"/>
      <use xlink:href="#DejaVuSerif-65" transform="translate(466.601562 0)"/>
      <use xlink:href="#DejaVuSerif-64" transform="translate(525.78125 0)"/>
      <use xlink:href="#DejaVuSerif-20" transform="translate(589.794922 0)"/>
      <use xlink:href="#DejaVuSerif-63" transform="translate(621.582031 0)"/>
      <use xlink:href="#DejaVuSerif-75" transform="translate(677.587891 0)"/>
      <use xlink:href="#DejaVuSerif-6d" transform="translate(741.992188 0)"/>
      <use xlink:href="#DejaVuSerif-75" transform="translate(836.816406 0)"/>
      <use xlink:href="#DejaVuSerif-6c" transform="translate(901.220703 0)"/>
      <use xlink:href="#DejaVuSerif-61" transform="translate(933.203125 0)"/>
      <use xlink:href="#DejaVuSerif-74" transform="translate(992.822266 0)"/>
      <use xlink:href="#DejaVuSerif-69" transform="translate(1033.007812 0)"/>
      <use xlink:href="#DejaVuSerif-76" transform="translate(1064.990234 0)"/>
      <use xlink:href="#DejaVuSerif-65" transform="translate(1121.484375 0)"/>
      <use xlink:href="#DejaVuSerif-20" transform="translate(1180.664062 0)"/>
      <use xlink:href="#DejaVuSerif-73" transform="translate(1212.451172 0)"/>
      <use xlink:href="#DejaVuSerif-70" transform="translate(1263.769531 0)"/>
      <use xlink:href="#DejaVuSerif-61" transform="translate(1327.783203 0)"/>
      <use xlink:href="#DejaVuSerif-63" transform="translate(1387.402344 0)"/>
      <use xlink:href="#DejaVuSerif-69" transform="translate(1443.408203 0)"/>
      <use xlink:href="#DejaVuSerif-6e" transform="translate(1475.390625 0)"/>
      <use xlink:href="#DejaVuSerif-67" transform="translate(1539.794922 0)"/>
     </g>
    </g>
   </g>
   <g id="matplotlib.axis_2">
    <g id="ytick_1">
     <g id="line2d_13">
      <path d="M 47.307188 366.294332 
L 702.031187 366.294332 
" clip-path="url(#pafd7f31cf7)" style="fill: none; stroke: #b0b0b0; stroke-opacity: 0.3; stroke-width: 0.8; stroke-linecap: square"/>
     </g>
     <g id="line2d_14">
      <defs>
       <path id="m17cd046dc4" d="M 0 0 
L -3.5 0 
" style="stroke: #000000; stroke-width: 0.8"/>
      </defs>
      <g>
       <use xlink:href="#m17cd046dc4" x="47.307188" y="366.294332" style="stroke: #000000; stroke-width: 0.8"/>
      </g>
     </g>
     <g id="text_8">
      <!-- 0.0 -->
      <g transform="translate(22.81375 370.473473) scale(0.11 -0.11)">
       <defs>
        <path id="DejaVuSerif-2e" d="M 603 325 
Q 603 500 722 622 
Q 841 744 1019 744 
Q 1191 744 1312 622 
Q 1434 500 1434 325 
Q 1434 153 1312 31 
Q 1191 -91 1019 -91 
Q 841 -91 722 29 
Q 603 150 603 325 
z
" transform="scale(0.015625)"/>
       </defs>
       <use xlink:href="#DejaVuSerif-30"/>
       <use xlink:href="#DejaVuSerif-2e" transform="translate(63.623047 0)"/>
       <use xlink:href="#DejaVuSerif-30" transform="translate(95.410156 0)"/>
      </g>
     </g>
    </g>
    <g id="ytick_2">
     <g id="line2d_15">
      <path d="M 47.307188 300.259438 
L 702.031187 300.259438 
" clip-path="url(#pafd7f31cf7)" style="fill: none; stroke: #b0b0b0; stroke-opacity: 0.3; stroke-width: 0.8; stroke-linecap: square"/>
     </g>
     <g id="line2d_16">
      <g>
       <use xlink:href="#m17cd046dc4" x="47.307188" y="300.259438" style="stroke: #000000; stroke-width: 0.8"/>
      </g>
     </g>
     <g id="text_9">
      <!-- 0.2 -->
      <g transform="translate(22.81375 304.438579) scale(0.11 -0.11)">
       <use xlink:href="#DejaVuSerif-30"/>
       <use xlink:href="#DejaVuSerif-2e" transform="translate(63.623047 0)"/>
       <use xlink:href="#DejaVuSerif-32" transform="translate(95.410156 0)"/>
      </g>
     </g>
    </g>
    <g id="ytick_3">
     <g id="line2d_17">
      <path d="M 47.307188 234.224544 
L 702.031187 234.224544 
" clip-path="url(#pafd7f31cf7)" style="fill: none; stroke: #b0b0b0; stroke-opacity: 0.3; stroke-width: 0.8; stroke-linecap: square"/>
     </g>
     <g id="line2d_18">
      <g>
       <use xlink:href="#m17cd046dc4" x="47.307188" y="234.224544" style="stroke: #000000; stroke-width: 0.8"/>
      </g>
     </g>
     <g id="text_10">
      <!-- 0.4 -->
      <g transform="translate(22.81375 238.403684) scale(0.11 -0.11)">
       <use xlink:href="#DejaVuSerif-30"/>
       <use xlink:href="#DejaVuSerif-2e" transform="translate(63.623047 0)"/>
       <use xlink:href="#DejaVuSerif-34" transform="translate(95.410156 0)"/>
      </g>
     </g>
    </g>
    <g id="ytick_4">
     <g id="line2d_19">
      <path d="M 47.307188 168.189649 
L 702.031187 168.189649 
" clip-path="url(#pafd7f31cf7)" style="fill: none; stroke: #b0b0b0; stroke-opacity: 0.3; stroke-width: 0.8; stroke-linecap: square"/>
     </g>
     <g id="line2d_20">
      <g>
       <use xlink:href="#m17cd046dc4" x="47.307188" y="168.189649" style="stroke: #000000; stroke-width: 0.8"/>
      </g>
     </g>
     <g id="text_11">
      <!-- 0.6 -->
      <g transform="translate(22.81375 172.36879) scale(0.11 -0.11)">
       <use xlink:href="#DejaVuSerif-30"/>
       <use xlink:href="#DejaVuSerif-2e" transform="translate(63.623047 0)"/>
       <use xlink:href="#DejaVuSerif-36" transform="translate(95.410156 0)"/>
      </g>
     </g>
    </g>
    <g id="ytick_5">
     <g id="line2d_21">
      <path d="M 47.307188 102.154755 
L 702.031187 102.154755 
" clip-path="url(#pafd7f31cf7)" style="fill: none; stroke: #b0b0b0; stroke-opacity: 0.3; stroke-width: 0.8; stroke-linecap: square"/>
     </g>
     <g id="line2d_22">
      <g>
       <use xlink:href="#m17cd046dc4" x="47.307188" y="102.154755" style="stroke: #000000; stroke-width: 0.8"/>
      </g>
     </g>
     <g id="text_12">
      <!-- 0.8 -->
      <g transform="translate(22.81375 106.333895) scale(0.11 -0.11)">
       <use xlink:href="#DejaVuSerif-30"/>
       <use xlink:href="#DejaVuSerif-2e" transform="translate(63.623047 0)"/>
       <use xlink:href="#DejaVuSerif-38" transform="translate(95.410156 0)"/>
      </g>
     </g>
    </g>
    <g id="ytick_6">
     <g id="line2d_23">
      <path d="M 47.307188 36.11986 
L 702.031187 36.11986 
" clip-path="url(#pafd7f31cf7)" style="fill: none; stroke: #b0b0b0; stroke-opacity: 0.3; stroke-width: 0.8; stroke-linecap: square"/>
     </g>
     <g id="line2d_24">
      <g>
       <use xlink:href="#m17cd046dc4" x="47.307188" y="36.11986" style="stroke: #000000; stroke-width: 0.8"/>
      </g>
     </g>
     <g id="text_13">
      <!-- 1.0 -->
      <g transform="translate(22.81375 40.299001) scale(0.11 -0.11)">
       <use xlink:href="#DejaVuSerif-31"/>
       <use xlink:href="#DejaVuSerif-2e" transform="translate(63.623047 0)"/>
       <use xlink:href="#DejaVuSerif-30" transform="translate(95.410156 0)"/>
      </g>
     </g>
    </g>
    <g id="text_14">
     <!-- Cumulative fraction $N(s)/N_{total}$ -->
     <g transform="translate(16.318125 293.877969) rotate(-90) scale(0.12 -0.12)">
      <defs>
       <path id="DejaVuSerif-43" d="M 4513 1234 
Q 4306 581 3820 245 
Q 3334 -91 2591 -91 
Q 2134 -91 1743 65 
Q 1353 222 1050 525 
Q 700 875 529 1320 
Q 359 1766 359 2328 
Q 359 3416 987 4083 
Q 1616 4750 2644 4750 
Q 3025 4750 3456 4650 
Q 3888 4550 4384 4347 
L 4384 3272 
L 4031 3272 
Q 3916 3859 3567 4137 
Q 3219 4416 2591 4416 
Q 1844 4416 1459 3886 
Q 1075 3356 1075 2328 
Q 1075 1303 1459 773 
Q 1844 244 2591 244 
Q 3113 244 3450 492 
Q 3788 741 3938 1234 
L 4513 1234 
z
" transform="scale(0.015625)"/>
       <path id="DejaVuSerif-66" d="M 2753 4078 
L 2450 4078 
Q 2447 4313 2317 4434 
Q 2188 4556 1941 4556 
Q 1619 4556 1487 4379 
Q 1356 4203 1356 3750 
L 1356 3322 
L 2284 3322 
L 2284 2988 
L 1356 2988 
L 1356 331 
L 2094 331 
L 2094 0 
L 231 0 
L 231 331 
L 781 331 
L 781 2988 
L 231 2988 
L 231 3322 
L 781 3322 
L 781 3738 
Q 781 4294 1070 4578 
Q 1359 4863 1919 4863 
Q 2128 4863 2337 4825 
Q 2547 4788 2753 4709 
L 2753 4078 
z
" transform="scale(0.015625)"/>
       <path id="DejaVuSans-Oblique-4e" d="M 1081 4666 
L 1931 4666 
L 3219 666 
L 4000 4666 
L 4616 4666 
L 3706 0 
L 2853 0 
L 1569 4025 
L 788 0 
L 172 0 
L 1081 4666 
z
" transform="scale(0.015625)"/>
       <path id="DejaVuSans-28" d="M 1984 4856 
Q 1566 4138 1362 3434 
Q 1159 2731 1159 2009 
Q 1159 1288 1364 580 
Q 1569 -128 1984 -844 
L 1484 -844 
Q 1016 -109 783 600 
Q 550 1309 550 2009 
Q 550 2706 781 3412 
Q 1013 4119 1484 4856 
L 1984 4856 
z
" transform="scale(0.015625)"/>
       <path id="DejaVuSans-Oblique-73" d="M 3200 3397 
L 3091 2853 
Q 2863 2978 2609 3040 
Q 2356 3103 2088 3103 
Q 1634 3103 1373 2948 
Q 1113 2794 1113 2528 
Q 1113 2219 1719 2053 
Q 1766 2041 1788 2034 
L 1972 1978 
Q 2547 1819 2739 1644 
Q 2931 1469 2931 1166 
Q 2931 609 2489 259 
Q 2047 -91 1331 -91 
Q 1053 -91 747 -37 
Q 441 16 72 128 
L 184 722 
Q 500 559 806 475 
Q 1113 391 1394 391 
Q 1816 391 2080 572 
Q 2344 753 2344 1031 
Q 2344 1331 1650 1516 
L 1591 1531 
L 1394 1581 
Q 956 1697 753 1886 
Q 550 2075 550 2369 
Q 550 2928 970 3256 
Q 1391 3584 2113 3584 
Q 2397 3584 2667 3537 
Q 2938 3491 3200 3397 
z
" transform="scale(0.015625)"/>
       <path id="DejaVuSans-29" d="M 513 4856 
L 1013 4856 
Q 1481 4119 1714 3412 
Q 1947 2706 1947 2009 
Q 1947 1309 1714 600 
Q 1481 -109 1013 -844 
L 513 -844 
Q 928 -128 1133 580 
Q 1338 1288 1338 2009 
Q 1338 2731 1133 3434 
Q 928 4138 513 4856 
z
" transform="scale(0.015625)"/>
       <path id="DejaVuSans-2f" d="M 1625 4666 
L 2156 4666 
L 531 -594 
L 0 -594 
L 1625 4666 
z
" transform="scale(0.015625)"/>
       <path id="DejaVuSans-Oblique-74" d="M 2706 3500 
L 2619 3053 
L 1472 3053 
L 1100 1153 
Q 1081 1047 1072 975 
Q 1063 903 1063 863 
Q 1063 663 1183 572 
Q 1303 481 1569 481 
L 2150 481 
L 2053 0 
L 1503 0 
Q 991 0 739 200 
Q 488 400 488 806 
Q 488 878 497 964 
Q 506 1050 525 1153 
L 897 3053 
L 409 3053 
L 500 3500 
L 978 3500 
L 1172 4494 
L 1747 4494 
L 1556 3500 
L 2706 3500 
z
" transform="scale(0.015625)"/>
       <path id="DejaVuSans-Oblique-6f" d="M 1625 -91 
Q 1009 -91 651 289 
Q 294 669 294 1325 
Q 294 1706 417 2101 
Q 541 2497 738 2766 
Q 1047 3184 1428 3384 
Q 1809 3584 2291 3584 
Q 2888 3584 3255 3212 
Q 3622 2841 3622 2241 
Q 3622 1825 3500 1412 
Q 3378 1000 3181 728 
Q 2875 309 2494 109 
Q 2113 -91 1625 -91 
z
M 891 1344 
Q 891 869 1089 633 
Q 1288 397 1691 397 
Q 2269 397 2648 901 
Q 3028 1406 3028 2181 
Q 3028 2634 2825 2865 
Q 2622 3097 2228 3097 
Q 1903 3097 1650 2945 
Q 1397 2794 1197 2484 
Q 1050 2253 970 1956 
Q 891 1659 891 1344 
z
" transform="scale(0.015625)"/>
       <path id="DejaVuSans-Oblique-61" d="M 3438 1997 
L 3047 0 
L 2472 0 
L 2578 531 
Q 2325 219 2001 64 
Q 1678 -91 1281 -91 
Q 834 -91 548 182 
Q 263 456 263 884 
Q 263 1497 752 1853 
Q 1241 2209 2100 2209 
L 2900 2209 
L 2931 2363 
Q 2938 2388 2941 2417 
Q 2944 2447 2944 2509 
Q 2944 2788 2717 2942 
Q 2491 3097 2081 3097 
Q 1800 3097 1504 3025 
Q 1209 2953 897 2809 
L 997 3341 
Q 1322 3463 1633 3523 
Q 1944 3584 2234 3584 
Q 2853 3584 3176 3315 
Q 3500 3047 3500 2534 
Q 3500 2431 3484 2292 
Q 3469 2153 3438 1997 
z
M 2816 1759 
L 2241 1759 
Q 1534 1759 1195 1570 
Q 856 1381 856 984 
Q 856 709 1029 553 
Q 1203 397 1509 397 
Q 1978 397 2328 733 
Q 2678 1069 2791 1631 
L 2816 1759 
z
" transform="scale(0.015625)"/>
       <path id="DejaVuSans-Oblique-6c" d="M 1172 4863 
L 1747 4863 
L 800 0 
L 225 0 
L 1172 4863 
z
" transform="scale(0.015625)"/>
      </defs>
      <use xlink:href="#DejaVuSerif-43" transform="translate(0 0.015625)"/>
      <use xlink:href="#DejaVuSerif-75" transform="translate(76.513672 0.015625)"/>
      <use xlink:href="#DejaVuSerif-6d" transform="translate(140.917969 0.015625)"/>
      <use xlink:href="#DejaVuSerif-75" transform="translate(235.742188 0.015625)"/>
      <use xlink:href="#DejaVuSerif-6c" transform="translate(300.146484 0.015625)"/>
      <use xlink:href="#DejaVuSerif-61" transform="translate(332.128906 0.015625)"/>
      <use xlink:href="#DejaVuSerif-74" transform="translate(391.748047 0.015625)"/>
      <use xlink:href="#DejaVuSerif-69" transform="translate(431.933594 0.015625)"/>
      <use xlink:href="#DejaVuSerif-76" transform="translate(463.916016 0.015625)"/>
      <use xlink:href="#DejaVuSerif-65" transform="translate(520.410156 0.015625)"/>
      <use xlink:href="#DejaVuSerif-20" transform="translate(579.589844 0.015625)"/>
      <use xlink:href="#DejaVuSerif-66" transform="translate(611.376953 0.015625)"/>
      <use xlink:href="#DejaVuSerif-72" transform="translate(648.388672 0.015625)"/>
      <use xlink:href="#DejaVuSerif-61" transform="translate(696.191406 0.015625)"/>
      <use xlink:href="#DejaVuSerif-63" transform="translate(755.810547 0.015625)"/>
      <use xlink:href="#DejaVuSerif-74" transform="translate(811.816406 0.015625)"/>
      <use xlink:href="#DejaVuSerif-69" transform="translate(852.001953 0.015625)"/>
      <use xlink:href="#DejaVuSerif-6f" transform="translate(883.984375 0.015625)"/>
      <use xlink:href="#DejaVuSerif-6e" transform="translate(944.189453 0.015625)"/>
      <use xlink:href="#DejaVuSerif-20" transform="translate(1008.59375 0.015625)"/>
      <use xlink:href="#DejaVuSans-Oblique-4e" transform="translate(1040.380859 0.015625)"/>
      <use xlink:href="#DejaVuSans-28" transform="translate(1115.185547 0.015625)"/>
      <use xlink:href="#DejaVuSans-Oblique-73" transform="translate(1154.199219 0.015625)"/>
      <use xlink:href="#DejaVuSans-29" transform="translate(1206.298828 0.015625)"/>
      <use xlink:href="#DejaVuSans-2f" transform="translate(1245.3125 0.015625)"/>
      <use xlink:href="#DejaVuSans-Oblique-4e" transform="translate(1279.003906 0.015625)"/>
      <use xlink:href="#DejaVuSans-Oblique-74" transform="translate(1353.808594 -16.390625) scale(0.7)"/>
      <use xlink:href="#DejaVuSans-Oblique-6f" transform="translate(1381.254883 -16.390625) scale(0.7)"/>
      <use xlink:href="#DejaVuSans-Oblique-74" transform="translate(1424.082031 -16.390625) scale(0.7)"/>
      <use xlink:href="#DejaVuSans-Oblique-61" transform="translate(1451.52832 -16.390625) scale(0.7)"/>
      <use xlink:href="#DejaVuSans-Oblique-6c" transform="translate(1494.423828 -16.390625) scale(0.7)"/>
     </g>
    </g>
   </g>
   <g id="line2d_25">
    <path d="M 77.067369 366.294332 
L 95.500589 366.294332 
L 95.500589 362.992588 
L 106.176268 362.992588 
L 106.176268 359.690843 
L 120.666356 359.690843 
L 120.666356 356.389098 
L 127.384621 356.389098 
L 127.384621 353.087354 
L 139.832877 353.087354 
L 139.832877 349.785609 
L 148.752095 349.785609 
L 148.752095 346.483864 
L 155.197818 346.483864 
L 155.197818 343.182119 
L 167.718233 343.182119 
L 167.718233 339.880375 
L 172.451935 339.880375 
L 172.451935 336.57863 
L 181.007023 336.57863 
L 181.007023 333.276885 
L 190.309998 333.276885 
L 190.309998 329.97514 
L 198.073694 329.97514 
L 198.073694 326.673396 
L 202.04744 326.673396 
L 202.04744 323.371651 
L 213.504488 323.371651 
L 213.504488 320.069906 
L 218.769683 320.069906 
L 218.769683 316.768162 
L 225.371272 316.768162 
L 225.371272 313.466417 
L 232.117827 313.466417 
L 232.117827 310.164672 
L 241.853327 310.164672 
L 241.853327 306.862927 
L 245.707745 306.862927 
L 245.707745 303.561183 
L 251.575849 303.561183 
L 251.575849 300.259438 
L 261.138648 300.259438 
L 261.138648 296.957693 
L 266.023381 296.957693 
L 266.023381 293.655949 
L 273.222317 293.655949 
L 273.222317 290.354204 
L 276.926019 290.354204 
L 276.926019 287.052459 
L 286.782639 287.052459 
L 286.782639 283.750714 
L 292.562181 283.750714 
L 292.562181 280.44897 
L 295.825491 280.44897 
L 295.825491 277.147225 
L 303.749139 277.147225 
L 303.749139 273.84548 
L 310.404431 273.84548 
L 310.404431 270.543736 
L 316.848369 270.543736 
L 316.848369 267.241991 
L 321.454683 267.241991 
L 321.454683 263.940246 
L 326.063415 263.940246 
L 326.063415 260.638501 
L 336.3968 260.638501 
L 336.3968 257.336757 
L 338.65869 257.336757 
L 338.65869 254.035012 
L 345.203995 254.035012 
L 345.203995 250.733267 
L 350.306446 250.733267 
L 350.306446 247.431522 
L 357.169015 247.431522 
L 357.169015 244.129778 
L 364.07237 244.129778 
L 364.07237 240.828033 
L 368.292264 240.828033 
L 368.292264 237.526288 
L 371.798322 237.526288 
L 371.798322 234.224544 
L 380.523031 234.224544 
L 380.523031 230.922799 
L 386.041825 230.922799 
L 386.041825 227.621054 
L 390.080473 227.621054 
L 390.080473 224.319309 
L 396.530731 224.319309 
L 396.530731 221.017565 
L 399.899712 221.017565 
L 399.899712 217.71582 
L 408.89117 217.71582 
L 408.89117 214.414075 
L 413.227388 214.414075 
L 413.227388 211.112331 
L 416.940891 211.112331 
L 416.940891 207.810586 
L 422.261948 207.810586 
L 422.261948 204.508841 
L 429.994438 204.508841 
L 429.994438 201.207096 
L 433.7997 201.207096 
L 433.7997 197.905352 
L 440.840657 197.905352 
L 440.840657 194.603607 
L 443.173776 194.603607 
L 443.173776 191.301862 
L 448.79271 191.301862 
L 448.79271 188.000118 
L 457.058015 188.000118 
L 457.058015 184.698373 
L 461.031622 184.698373 
L 461.031622 181.396628 
L 464.383538 181.396628 
L 464.383538 178.094883 
L 470.643577 178.094883 
L 470.643577 174.793139 
L 475.572828 174.793139 
L 475.572828 171.491394 
L 482.280852 171.491394 
L 482.280852 168.189649 
L 486.689878 168.189649 
L 486.689878 164.887904 
L 491.802007 164.887904 
L 491.802007 161.58616 
L 493.989861 161.58616 
L 493.989861 158.284415 
L 503.35609 158.284415 
L 503.35609 154.98267 
L 506.949574 154.98267 
L 506.949574 151.680926 
L 511.465313 151.680926 
L 511.465313 148.379181 
L 516.646756 148.379181 
L 516.646756 145.077436 
L 520.765942 145.077436 
L 520.765942 141.775691 
L 526.896493 141.775691 
L 526.896493 138.473947 
L 534.035498 138.473947 
L 534.035498 135.172202 
L 535.974058 135.172202 
L 535.974058 131.870457 
L 540.336965 131.870457 
L 540.336965 128.568713 
L 546.190887 128.568713 
L 546.190887 125.266968 
L 553.177627 125.266968 
L 553.177627 121.965223 
L 555.996066 121.965223 
L 555.996066 118.663478 
L 561.845797 118.663478 
L 561.845797 115.361734 
L 566.157708 115.361734 
L 566.157708 112.059989 
L 569.205669 112.059989 
L 569.205669 108.758244 
L 577.902481 108.758244 
L 577.902481 105.4565 
L 581.191358 105.4565 
L 581.191358 102.154755 
L 585.730742 102.154755 
L 585.730742 98.85301 
L 588.955874 98.85301 
L 588.955874 95.551265 
L 595.677822 95.551265 
L 595.677822 92.249521 
L 600.148084 92.249521 
L 600.148084 88.947776 
L 605.806941 88.947776 
L 605.806941 85.646031 
L 610.241891 85.646031 
L 610.241891 82.344286 
L 613.451232 82.344286 
L 613.451232 79.042542 
L 617.793677 79.042542 
L 617.793677 75.740797 
L 625.550044 75.740797 
L 625.550044 72.439052 
L 629.95894 72.439052 
L 629.95894 69.137308 
L 631.874673 69.137308 
L 631.874673 65.835563 
L 638.769872 65.835563 
L 638.769872 62.533818 
L 641.382909 62.533818 
L 641.382909 59.232073 
L 647.908296 59.232073 
L 647.908296 55.930329 
L 653.036199 55.930329 
L 653.036199 52.628584 
L 658.155554 52.628584 
L 658.155554 49.326839 
L 660.128186 49.326839 
L 660.128186 46.025095 
L 664.69458 46.025095 
L 664.69458 42.72335 
L 672.271006 42.72335 
L 672.271006 39.421605 
L 672.271006 39.421605 
" clip-path="url(#pafd7f31cf7)" style="fill: none; stroke: #ffd700; stroke-width: 2; stroke-linecap: square"/>
   </g>
   <g id="line2d_26">
    <path d="M 77.067369 366.294332 
L 77.587242 366.294332 
L 77.587242 359.415698 
L 78.421699 359.415698 
L 78.421699 352.537063 
L 79.570951 352.537063 
L 79.570951 345.658428 
L 81.03161 345.658428 
L 81.03161 338.779793 
L 82.796812 338.779793 
L 82.796812 331.901158 
L 84.857227 331.901158 
L 84.857227 325.022523 
L 87.201505 325.022523 
L 87.201505 318.143889 
L 89.81661 318.143889 
L 89.81661 311.265254 
L 92.688172 311.265254 
L 92.688172 304.386619 
L 95.800997 304.386619 
L 95.800997 297.507984 
L 99.139804 297.507984 
L 99.139804 290.629349 
L 102.690234 290.629349 
L 102.690234 283.750714 
L 106.440102 283.750714 
L 106.440102 276.87208 
L 110.380673 276.87208 
L 110.380673 269.993445 
L 114.507605 269.993445 
L 114.507605 263.11481 
L 118.821148 263.11481 
L 118.821148 256.236175 
L 123.325379 256.236175 
L 123.325379 249.35754 
L 128.026678 249.35754 
L 128.026678 242.478905 
L 132.931989 242.478905 
L 132.931989 235.600271 
L 138.047467 235.600271 
L 138.047467 228.721636 
L 143.377789 228.721636 
L 143.377789 221.843001 
L 148.926092 221.843001 
L 148.926092 214.964366 
L 154.694263 214.964366 
L 154.694263 208.085731 
L 160.683333 208.085731 
L 160.683333 201.207096 
L 166.893817 201.207096 
L 166.893817 194.328462 
L 173.325953 194.328462 
L 173.325953 187.449827 
L 179.979842 187.449827 
L 179.979842 180.571192 
L 186.855525 180.571192 
L 186.855525 173.692557 
L 193.953016 173.692557 
L 193.953016 166.813922 
L 201.272322 166.813922 
L 201.272322 159.935287 
L 208.813444 159.935287 
L 208.813444 153.056653 
L 216.576382 153.056653 
L 216.576382 146.178018 
L 224.561138 146.178018 
L 224.561138 139.299383 
L 232.767712 139.299383 
L 232.767712 132.420748 
L 241.196104 132.420748 
L 241.196104 125.542113 
L 249.846315 125.542113 
L 249.846315 118.663478 
L 258.718346 118.663478 
L 258.718346 111.784844 
L 267.812195 111.784844 
L 267.812195 104.906209 
L 277.127865 104.906209 
L 277.127865 98.027574 
L 286.665355 98.027574 
L 286.665355 91.148939 
L 296.424666 91.148939 
L 296.424666 84.270304 
L 306.405798 84.270304 
L 306.405798 77.391669 
L 316.608752 77.391669 
L 316.608752 70.513035 
L 327.033528 70.513035 
L 327.033528 63.6344 
L 337.680126 63.6344 
L 337.680126 56.755765 
L 348.548548 56.755765 
L 348.548548 49.87713 
L 359.638793 49.87713 
L 359.638793 42.998495 
" clip-path="url(#pafd7f31cf7)" style="fill: none; stroke: #4682b4; stroke-opacity: 0.8; stroke-width: 1.5; stroke-linecap: square"/>
   </g>
   <g id="line2d_27">
    <path d="M 77.067369 366.294332 
L 77.158142 366.294332 
L 77.158142 359.415698 
L 77.314731 359.415698 
L 77.314731 352.537063 
L 77.536448 352.537063 
L 77.536448 345.658428 
L 77.820545 345.658428 
L 77.820545 338.779793 
L 78.172115 338.779793 
L 78.172115 331.901158 
L 78.566868 331.901158 
L 78.566868 325.022523 
L 79.033046 325.022523 
L 79.033046 318.143889 
L 79.552853 318.143889 
L 79.552853 311.265254 
L 80.116716 311.265254 
L 80.116716 304.386619 
L 80.732037 304.386619 
L 80.732037 297.507984 
L 81.375219 297.507984 
L 81.375219 290.629349 
L 82.078384 290.629349 
L 82.078384 283.750714 
L 82.793255 283.750714 
L 82.793255 276.87208 
L 83.541158 276.87208 
L 83.541158 269.993445 
L 84.320644 269.993445 
L 84.320644 263.11481 
L 85.099513 263.11481 
L 85.099513 256.236175 
L 85.94252 256.236175 
L 85.94252 249.35754 
L 86.731316 249.35754 
L 86.731316 242.478905 
L 87.53107 242.478905 
L 87.53107 235.600271 
L 88.34312 235.600271 
L 88.34312 228.721636 
L 89.048439 228.721636 
L 89.048439 221.843001 
L 89.799958 221.843001 
L 89.799958 214.964366 
L 90.440994 214.964366 
L 90.440994 208.085731 
L 90.978668 208.085731 
L 90.978668 201.207096 
L 91.638874 201.207096 
L 91.638874 194.328462 
L 92.427749 194.328462 
L 92.427749 187.449827 
L 93.326289 187.449827 
L 93.326289 180.571192 
L 94.274854 180.571192 
L 94.274854 173.692557 
L 95.464453 173.692557 
L 95.464453 166.813922 
L 96.639933 166.813922 
L 96.639933 159.935287 
L 98.221485 159.935287 
L 98.221485 153.056653 
L 99.984278 153.056653 
L 99.984278 146.178018 
L 101.839243 146.178018 
L 101.839243 139.299383 
L 103.571872 139.299383 
L 103.571872 132.420748 
L 106.056576 132.420748 
L 106.056576 125.542113 
L 109.16863 125.542113 
L 109.16863 118.663478 
L 112.372303 118.663478 
L 112.372303 111.784844 
L 116.481343 111.784844 
L 116.481343 104.906209 
L 121.509132 104.906209 
L 121.509132 98.027574 
L 128.715542 98.027574 
L 128.715542 91.148939 
L 136.233862 91.148939 
L 136.233862 84.270304 
L 147.534533 84.270304 
L 147.534533 77.391669 
L 161.813782 77.391669 
L 161.813782 70.513035 
L 185.820838 70.513035 
L 185.820838 63.6344 
L 218.007384 63.6344 
L 218.007384 56.755765 
L 266.486638 56.755765 
L 266.486638 49.87713 
L 359.638793 49.87713 
L 359.638793 42.998495 
" clip-path="url(#pafd7f31cf7)" style="fill: none; stroke: #ff7f50; stroke-opacity: 0.8; stroke-width: 1.5; stroke-linecap: square"/>
   </g>
   <g id="line2d_28">
    <path d="M 77.067369 366.294332 
L 77.353108 366.294332 
L 77.353108 359.415698 
L 77.823864 359.415698 
L 77.823864 352.537063 
L 78.487734 352.537063 
L 78.487734 345.658428 
L 79.344277 345.658428 
L 79.344277 338.779793 
L 80.384779 338.779793 
L 80.384779 331.901158 
L 81.590372 331.901158 
L 81.590372 325.022523 
L 82.923393 325.022523 
L 82.923393 318.143889 
L 84.314202 318.143889 
L 84.314202 311.265254 
L 85.718623 311.265254 
L 85.718623 304.386619 
L 87.265554 304.386619 
L 87.265554 297.507984 
L 89.074185 297.507984 
L 89.074185 290.629349 
L 91.123708 290.629349 
L 91.123708 283.750714 
L 93.379958 283.750714 
L 93.379958 276.87208 
L 95.829162 276.87208 
L 95.829162 269.993445 
L 98.468977 269.993445 
L 98.468977 263.11481 
L 101.301905 263.11481 
L 101.301905 256.236175 
L 104.33247 256.236175 
L 104.33247 249.35754 
L 107.566176 249.35754 
L 107.566176 242.478905 
L 111.009203 242.478905 
L 111.009203 235.600271 
L 114.668352 235.600271 
L 114.668352 228.721636 
L 118.551077 228.721636 
L 118.551077 221.843001 
L 122.665549 221.843001 
L 122.665549 214.964366 
L 127.020726 214.964366 
L 127.020726 208.085731 
L 131.626439 208.085731 
L 131.626439 201.207096 
L 136.493492 201.207096 
L 136.493492 194.328462 
L 141.63377 194.328462 
L 141.63377 187.449827 
L 147.060376 187.449827 
L 147.060376 180.571192 
L 152.787779 180.571192 
L 152.787779 173.692557 
L 158.831994 173.692557 
L 158.831994 166.813922 
L 165.210789 166.813922 
L 165.210789 159.935287 
L 171.94393 159.935287 
L 171.94393 153.056653 
L 179.053466 153.056653 
L 179.053466 146.178018 
L 186.564074 146.178018 
L 186.564074 139.299383 
L 194.503458 139.299383 
L 194.503458 132.420748 
L 202.902833 132.420748 
L 202.902833 125.542113 
L 211.797495 125.542113 
L 211.797495 118.663478 
L 221.227506 118.663478 
L 221.227506 111.784844 
L 231.238506 111.784844 
L 231.238506 104.906209 
L 241.88269 104.906209 
L 241.88269 98.027574 
L 253.219973 98.027574 
L 253.219973 91.148939 
L 265.319404 91.148939 
L 265.319404 84.270304 
L 278.260925 84.270304 
L 278.260925 77.391669 
L 292.137747 77.391669 
L 292.137747 70.513035 
L 307.05998 70.513035 
L 307.05998 63.6344 
L 323.1611 63.6344 
L 323.1611 56.755765 
L 340.610658 56.755765 
L 340.610658 49.87713 
L 359.638793 49.87713 
L 359.638793 42.998495 
" clip-path="url(#pafd7f31cf7)" style="fill: none; stroke: #228b22; stroke-opacity: 0.8; stroke-width: 1.5; stroke-linecap: square"/>
   </g>
   <g id="patch_3">
    <path d="M 47.307188 382.637969 
L 47.307188 23.077969 
" style="fill: none; stroke: #000000; stroke-width: 0.8; stroke-linejoin: miter; stroke-linecap: square"/>
   </g>
   <g id="patch_4">
    <path d="M 702.031187 382.637969 
L 702.031187 23.077969 
" style="fill: none; stroke: #000000; stroke-width: 0.8; stroke-linejoin: miter; stroke-linecap: square"/>
   </g>
   <g id="patch_5">
    <path d="M 47.307187 382.637969 
L 702.031187 382.637969 
" style="fill: none; stroke: #000000; stroke-width: 0.8; stroke-linejoin: miter; stroke-linecap: square"/>
   </g>
   <g id="patch_6">
    <path d="M 47.307187 23.077969 
L 702.031187 23.077969 
" style="fill: none; stroke: #000000; stroke-width: 0.8; stroke-linejoin: miter; stroke-linecap: square"/>
   </g>
   <g id="text_15">
    <!-- Eigenvalue Staircase: Spectral vs Zeta -->
    <g transform="translate(247.079266 17.077969) scale(0.13 -0.13)">
     <defs>
      <path id="DejaVuSerif-45" d="M 353 0 
L 353 331 
L 947 331 
L 947 4331 
L 353 4331 
L 353 4666 
L 4109 4666 
L 4109 3628 
L 3725 3628 
L 3725 4281 
L 1581 4281 
L 1581 2719 
L 3109 2719 
L 3109 3303 
L 3494 3303 
L 3494 1753 
L 3109 1753 
L 3109 2338 
L 1581 2338 
L 1581 384 
L 3775 384 
L 3775 1038 
L 4159 1038 
L 4159 0 
L 353 0 
z
" transform="scale(0.015625)"/>
      <path id="DejaVuSerif-53" d="M 594 225 
L 594 1288 
L 953 1284 
Q 969 753 1261 498 
Q 1553 244 2150 244 
Q 2706 244 2998 464 
Q 3291 684 3291 1106 
Q 3291 1444 3114 1625 
Q 2938 1806 2369 1978 
L 1753 2163 
Q 1084 2366 811 2669 
Q 538 2972 538 3500 
Q 538 4094 959 4422 
Q 1381 4750 2144 4750 
Q 2469 4750 2856 4679 
Q 3244 4609 3681 4475 
L 3681 3481 
L 3328 3481 
Q 3275 3975 2998 4195 
Q 2722 4416 2156 4416 
Q 1663 4416 1405 4214 
Q 1147 4013 1147 3628 
Q 1147 3294 1340 3103 
Q 1534 2913 2163 2725 
L 2741 2553 
Q 3375 2363 3645 2067 
Q 3916 1772 3916 1275 
Q 3916 597 3481 253 
Q 3047 -91 2188 -91 
Q 1803 -91 1404 -12 
Q 1006 66 594 225 
z
" transform="scale(0.015625)"/>
      <path id="DejaVuSerif-3a" d="M 666 325 
Q 666 500 786 622 
Q 906 744 1081 744 
Q 1256 744 1376 622 
Q 1497 500 1497 325 
Q 1497 150 1378 29 
Q 1259 -91 1081 -91 
Q 903 -91 784 29 
Q 666 150 666 325 
z
M 666 2363 
Q 666 2538 786 2658 
Q 906 2778 1081 2778 
Q 1259 2778 1378 2659 
Q 1497 2541 1497 2363 
Q 1497 2184 1378 2065 
Q 1259 1947 1081 1947 
Q 906 1947 786 2067 
Q 666 2188 666 2363 
z
" transform="scale(0.015625)"/>
      <path id="DejaVuSerif-5a" d="M 288 0 
L 288 225 
L 3194 4281 
L 781 4281 
L 781 3584 
L 397 3584 
L 397 4666 
L 4084 4666 
L 4084 4441 
L 1178 384 
L 3816 384 
L 3816 1038 
L 4197 1038 
L 4197 0 
L 288 0 
z
" transform="scale(0.015625)"/>
     </defs>
     <use xlink:href="#DejaVuSerif-45"/>
     <use xlink:href="#DejaVuSerif-69" transform="translate(72.998047 0)"/>
     <use xlink:href="#DejaVuSerif-67" transform="translate(104.980469 0)"/>
     <use xlink:href="#DejaVuSerif-65" transform="translate(168.994141 0)"/>
     <use xlink:href="#DejaVuSerif-6e" transform="translate(228.173828 0)"/>
     <use xlink:href="#DejaVuSerif-76" transform="translate(292.578125 0)"/>
     <use xlink:href="#DejaVuSerif-61" transform="translate(349.072266 0)"/>
     <use xlink:href="#DejaVuSerif-6c" transform="translate(408.691406 0)"/>
     <use xlink:href="#DejaVuSerif-75" transform="translate(440.673828 0)"/>
     <use xlink:href="#DejaVuSerif-65" transform="translate(505.078125 0)"/>
     <use xlink:href="#DejaVuSerif-20" transform="translate(564.257812 0)"/>
     <use xlink:href="#DejaVuSerif-53" transform="translate(596.044922 0)"/>
     <use xlink:href="#DejaVuSerif-74" transform="translate(664.550781 0)"/>
     <use xlink:href="#DejaVuSerif-61" transform="translate(704.736328 0)"/>
     <use xlink:href="#DejaVuSerif-69" transform="translate(764.355469 0)"/>
     <use xlink:href="#DejaVuSerif-72" transform="translate(796.337891 0)"/>
     <use xlink:href="#DejaVuSerif-63" transform="translate(844.140625 0)"/>
     <use xlink:href="#DejaVuSerif-61" transform="translate(900.146484 0)"/>
     <use xlink:href="#DejaVuSerif-73" transform="translate(959.765625 0)"/>
     <use xlink:href="#DejaVuSerif-65" transform="translate(1011.083984 0)"/>
     <use xlink:href="#DejaVuSerif-3a" transform="translate(1070.263672 0)"/>
     <use xlink:href="#DejaVuSerif-20" transform="translate(1103.955078 0)"/>
     <use xlink:href="#DejaVuSerif-53" transform="translate(1135.742188 0)"/>
     <use xlink:href="#DejaVuSerif-70" transform="translate(1204.248047 0)"/>
     <use xlink:href="#DejaVuSerif-65" transform="translate(1268.261719 0)"/>
     <use xlink:href="#DejaVuSerif-63" transform="translate(1327.441406 0)"/>
     <use xlink:href="#DejaVuSerif-74" transform="translate(1383.447266 0)"/>
     <use xlink:href="#DejaVuSerif-72" transform="translate(1423.632812 0)"/>
     <use xlink:href="#DejaVuSerif-61" transform="translate(1471.435547 0)"/>
     <use xlink:href="#DejaVuSerif-6c" transform="translate(1531.054688 0)"/>
     <use xlink:href="#DejaVuSerif-20" transform="translate(1563.037109 0)"/>
     <use xlink:href="#DejaVuSerif-76" transform="translate(1594.824219 0)"/>
     <use xlink:href="#DejaVuSerif-73" transform="translate(1651.318359 0)"/>
     <use xlink:href="#DejaVuSerif-20" transform="translate(1702.636719 0)"/>
     <use xlink:href="#DejaVuSerif-5a" transform="translate(1734.423828 0)"/>
     <use xlink:href="#DejaVuSerif-65" transform="translate(1803.90625 0)"/>
     <use xlink:href="#DejaVuSerif-74" transform="translate(1863.085938 0)"/>
     <use xlink:href="#DejaVuSerif-61" transform="translate(1903.271484 0)"/>
    </g>
   </g>
   <g id="legend_1">
    <g id="patch_7">
     <path d="M 542.23275 377.637969 
L 695.031187 377.637969 
Q 697.031187 377.637969 697.031187 375.637969 
L 697.031187 317.783281 
Q 697.031187 315.783281 695.031187 315.783281 
L 542.23275 315.783281 
Q 540.23275 315.783281 540.23275 317.783281 
L 540.23275 375.637969 
Q 540.23275 377.637969 542.23275 377.637969 
z
" style="fill: #ffffff; opacity: 0.8; stroke: #cccccc; stroke-linejoin: miter"/>
    </g>
    <g id="line2d_29">
     <path d="M 544.23275 323.881719 
L 554.23275 323.881719 
L 554.23275 323.881719 
L 564.23275 323.881719 
L 564.23275 323.881719 
" style="fill: none; stroke: #ffd700; stroke-width: 2; stroke-linecap: square"/>
    </g>
    <g id="text_16">
     <!-- Zeta zeros (normalized) -->
     <g transform="translate(572.23275 327.381719) scale(0.1 -0.1)">
      <defs>
       <path id="DejaVuSerif-28" d="M 2041 -997 
Q 1281 -656 893 83 
Q 506 822 506 1931 
Q 506 3044 893 3783 
Q 1281 4522 2041 4863 
L 2041 4556 
Q 1559 4225 1350 3623 
Q 1141 3022 1141 1931 
Q 1141 844 1350 242 
Q 1559 -359 2041 -691 
L 2041 -997 
z
" transform="scale(0.015625)"/>
       <path id="DejaVuSerif-29" d="M 453 -997 
L 453 -691 
Q 934 -359 1145 242 
Q 1356 844 1356 1931 
Q 1356 3022 1145 3623 
Q 934 4225 453 4556 
L 453 4863 
Q 1216 4522 1603 3783 
Q 1991 3044 1991 1931 
Q 1991 822 1603 83 
Q 1216 -656 453 -997 
z
" transform="scale(0.015625)"/>
      </defs>
      <use xlink:href="#DejaVuSerif-5a"/>
      <use xlink:href="#DejaVuSerif-65" transform="translate(69.482422 0)"/>
      <use xlink:href="#DejaVuSerif-74" transform="translate(128.662109 0)"/>
      <use xlink:href="#DejaVuSerif-61" transform="translate(168.847656 0)"/>
      <use xlink:href="#DejaVuSerif-20" transform="translate(228.466797 0)"/>
      <use xlink:href="#DejaVuSerif-7a" transform="translate(260.253906 0)"/>
      <use xlink:href="#DejaVuSerif-65" transform="translate(312.939453 0)"/>
      <use xlink:href="#DejaVuSerif-72" transform="translate(372.119141 0)"/>
      <use xlink:href="#DejaVuSerif-6f" transform="translate(419.921875 0)"/>
      <use xlink:href="#DejaVuSerif-73" transform="translate(480.126953 0)"/>
      <use xlink:href="#DejaVuSerif-20" transform="translate(531.445312 0)"/>
      <use xlink:href="#DejaVuSerif-28" transform="translate(563.232422 0)"/>
      <use xlink:href="#DejaVuSerif-6e" transform="translate(602.246094 0)"/>
      <use xlink:href="#DejaVuSerif-6f" transform="translate(666.650391 0)"/>
      <use xlink:href="#DejaVuSerif-72" transform="translate(726.855469 0)"/>
      <use xlink:href="#DejaVuSerif-6d" transform="translate(774.658203 0)"/>
      <use xlink:href="#DejaVuSerif-61" transform="translate(869.482422 0)"/>
      <use xlink:href="#DejaVuSerif-6c" transform="translate(929.101562 0)"/>
      <use xlink:href="#DejaVuSerif-69" transform="translate(961.083984 0)"/>
      <use xlink:href="#DejaVuSerif-7a" transform="translate(993.066406 0)"/>
      <use xlink:href="#DejaVuSerif-65" transform="translate(1045.751953 0)"/>
      <use xlink:href="#DejaVuSerif-64" transform="translate(1104.931641 0)"/>
      <use xlink:href="#DejaVuSerif-29" transform="translate(1168.945312 0)"/>
     </g>
    </g>
    <g id="line2d_30">
     <path d="M 544.23275 338.559844 
L 554.23275 338.559844 
L 554.23275 338.559844 
L 564.23275 338.559844 
L 564.23275 338.559844 
" style="fill: none; stroke: #4682b4; stroke-opacity: 0.8; stroke-width: 1.5; stroke-linecap: square"/>
    </g>
    <g id="text_17">
     <!-- Linear spectrum -->
     <g transform="translate(572.23275 342.059844) scale(0.1 -0.1)">
      <defs>
       <path id="DejaVuSerif-4c" d="M 353 0 
L 353 331 
L 947 331 
L 947 4331 
L 353 4331 
L 353 4666 
L 2175 4666 
L 2175 4331 
L 1581 4331 
L 1581 384 
L 3713 384 
L 3713 1166 
L 4097 1166 
L 4097 0 
L 353 0 
z
" transform="scale(0.015625)"/>
      </defs>
      <use xlink:href="#DejaVuSerif-4c"/>
      <use xlink:href="#DejaVuSerif-69" transform="translate(66.40625 0)"/>
      <use xlink:href="#DejaVuSerif-6e" transform="translate(98.388672 0)"/>
      <use xlink:href="#DejaVuSerif-65" transform="translate(162.792969 0)"/>
      <use xlink:href="#DejaVuSerif-61" transform="translate(221.972656 0)"/>
      <use xlink:href="#DejaVuSerif-72" transform="translate(281.591797 0)"/>
      <use xlink:href="#DejaVuSerif-20" transform="translate(329.394531 0)"/>
      <use xlink:href="#DejaVuSerif-73" transform="translate(361.181641 0)"/>
      <use xlink:href="#DejaVuSerif-70" transform="translate(412.5 0)"/>
      <use xlink:href="#DejaVuSerif-65" transform="translate(476.513672 0)"/>
      <use xlink:href="#DejaVuSerif-63" transform="translate(535.693359 0)"/>
      <use xlink:href="#DejaVuSerif-74" transform="translate(591.699219 0)"/>
      <use xlink:href="#DejaVuSerif-72" transform="translate(631.884766 0)"/>
      <use xlink:href="#DejaVuSerif-75" transform="translate(679.6875 0)"/>
      <use xlink:href="#DejaVuSerif-6d" transform="translate(744.091797 0)"/>
     </g>
    </g>
    <g id="line2d_31">
     <path d="M 544.23275 353.237969 
L 554.23275 353.237969 
L 554.23275 353.237969 
L 564.23275 353.237969 
L 564.23275 353.237969 
" style="fill: none; stroke: #ff7f50; stroke-opacity: 0.8; stroke-width: 1.5; stroke-linecap: square"/>
    </g>
    <g id="text_18">
     <!-- Prime spectrum -->
     <g transform="translate(572.23275 356.737969) scale(0.1 -0.1)">
      <defs>
       <path id="DejaVuSerif-50" d="M 1581 2375 
L 2406 2375 
Q 2872 2375 3115 2626 
Q 3359 2878 3359 3353 
Q 3359 3831 3115 4081 
Q 2872 4331 2406 4331 
L 1581 4331 
L 1581 2375 
z
M 353 0 
L 353 331 
L 947 331 
L 947 4331 
L 353 4331 
L 353 4666 
L 2559 4666 
Q 3259 4666 3668 4311 
Q 4078 3956 4078 3353 
Q 4078 2753 3668 2397 
Q 3259 2041 2559 2041 
L 1581 2041 
L 1581 331 
L 2303 331 
L 2303 0 
L 353 0 
z
" transform="scale(0.015625)"/>
      </defs>
      <use xlink:href="#DejaVuSerif-50"/>
      <use xlink:href="#DejaVuSerif-72" transform="translate(67.285156 0)"/>
      <use xlink:href="#DejaVuSerif-69" transform="translate(115.087891 0)"/>
      <use xlink:href="#DejaVuSerif-6d" transform="translate(147.070312 0)"/>
      <use xlink:href="#DejaVuSerif-65" transform="translate(241.894531 0)"/>
      <use xlink:href="#DejaVuSerif-20" transform="translate(301.074219 0)"/>
      <use xlink:href="#DejaVuSerif-73" transform="translate(332.861328 0)"/>
      <use xlink:href="#DejaVuSerif-70" transform="translate(384.179688 0)"/>
      <use xlink:href="#DejaVuSerif-65" transform="translate(448.193359 0)"/>
      <use xlink:href="#DejaVuSerif-63" transform="translate(507.373047 0)"/>
      <use xlink:href="#DejaVuSerif-74" transform="translate(563.378906 0)"/>
      <use xlink:href="#DejaVuSerif-72" transform="translate(603.564453 0)"/>
      <use xlink:href="#DejaVuSerif-75" transform="translate(651.367188 0)"/>
      <use xlink:href="#DejaVuSerif-6d" transform="translate(715.771484 0)"/>
     </g>
    </g>
    <g id="line2d_32">
     <path d="M 544.23275 367.916094 
L 554.23275 367.916094 
L 554.23275 367.916094 
L 564.23275 367.916094 
L 564.23275 367.916094 
" style="fill: none; stroke: #228b22; stroke-opacity: 0.8; stroke-width: 1.5; stroke-linecap: square"/>
    </g>
    <g id="text_19">
     <!-- Log spectrum -->
     <g transform="translate(572.23275 371.416094) scale(0.1 -0.1)">
      <use xlink:href="#DejaVuSerif-4c"/>
      <use xlink:href="#DejaVuSerif-6f" transform="translate(66.40625 0)"/>
      <use xlink:href="#DejaVuSerif-67" transform="translate(126.611328 0)"/>
      <use xlink:href="#DejaVuSerif-20" transform="translate(190.625 0)"/>
      <use xlink:href="#DejaVuSerif-73" transform="translate(222.412109 0)"/>
      <use xlink:href="#DejaVuSerif-70" transform="translate(273.730469 0)"/>
      <use xlink:href="#DejaVuSerif-65" transform="translate(337.744141 0)"/>
      <use xlink:href="#DejaVuSerif-63" transform="translate(396.923828 0)"/>
      <use xlink:href="#DejaVuSerif-74" transform="translate(452.929688 0)"/>
      <use xlink:href="#DejaVuSerif-72" transform="translate(493.115234 0)"/>
      <use xlink:href="#DejaVuSerif-75" transform="translate(540.917969 0)"/>
      <use xlink:href="#DejaVuSerif-6d" transform="translate(605.322266 0)"/>
     </g>
    </g>
   </g>
  </g>
 </g>
 <defs>
  <clipPath id="pafd7f31cf7">
   <rect x="47.307188" y="23.077969" width="654.724" height="359.56"/>
  </clipPath>
 </defs>
</svg>
